<?xml version="1.0" encoding="UTF-8"?>
<!DOCTYPE svg PUBLIC "-//W3C//DTD SVG 1.1//EN" "http://www.w3.org/Graphics/SVG/1.1/DTD/svg11.dtd">
<!-- Creator: CorelDRAW 2020 (64-Bit) -->
<svg xmlns="http://www.w3.org/2000/svg" xml:space="preserve" width="5mm" height="5mm" version="1.1" style="shape-rendering:geometricPrecision; text-rendering:geometricPrecision; image-rendering:optimizeQuality; fill-rule:evenodd; clip-rule:evenodd"
viewBox="0 0 500 500"
 xmlns:xlink="http://www.w3.org/1999/xlink"
 xmlns:xodm="http://www.corel.com/coreldraw/odm/2003">
 <defs>
  <style type="text/css">
   <![CDATA[
    .str0 {stroke:#2B2A29;stroke-width:10;stroke-miterlimit:22.9256}
    .fil0 {fill:#FEFEFE}
    .fil1 {fill:#010101}
   ]]>
  </style>
 </defs>
 <g id="Layer_x0020_1">
  <metadata id="CorelCorpID_0Corel-Layer"/>
  <circle class="fil0 str0" cx="246" cy="254" r="150"/>
  <g id="_1582784128">
   <path class="fil1" d="M302.47 299.39c0.57,-0.93 0.64,-0.55 2.09,-0.6 1.01,-0.03 1.83,-0.01 2.79,0.18l0.33 44.1c-0.45,6.18 1.58,10.73 7.24,10.82 2.95,0.05 4.33,-1.48 5.58,-3.11 1.59,-2.05 1.47,-4.62 1.27,-7.66l0.06 -44.15c2.64,-0.45 13.59,0.03 15.11,-0.3 2.34,-0.5 0.97,0.51 1.25,-1.13 -1.74,-9.85 -17.51,-74.06 -16.61,-77.51 3.4,-1.88 3.55,3.28 4.35,6.68l6.98 30.97c1.38,5.91 2.19,16.74 9.25,14.86 6.74,-1.8 2.81,-12.26 1.52,-18.25 -2.99,-13.91 -6.06,-27.56 -9.25,-41.36 -1.77,-7.64 -2.59,-15.08 -7.25,-17.8 -3.85,-2.24 -16.27,-1.23 -21.73,-1.23 -4.64,0 -19.24,-0.69 -22.46,0.96 -3.28,1.69 -4.31,4.05 -5.06,7.3 -0.82,3.51 -1.55,6.75 -2.37,10.24 -3.22,13.82 -6.23,27.49 -9.28,41.32 -0.79,3.54 -1.5,6.93 -2.21,10.49 -0.8,4.18 0.23,7.15 3.4,8.27 1.83,0.65 3.35,0.18 4.69,-0.71 1.46,-0.98 1.57,-1.49 2.2,-3.78 3.88,-14.32 6.91,-31.83 10.8,-45.89 0.58,-2.11 0.67,-3.3 2.64,-2.37 1.31,1.96 -0.63,7.87 -1.16,10.24l-6.53 29.57c-1.4,6.54 -8.39,35.62 -8.65,39.32l16.3 0.25c-0.17,10.49 -0.05,21.11 -0.02,31.6 0.03,10.64 -2,23.34 7.37,23.19 4.22,-0.08 7.06,-3.68 7.1,-7.84 0.12,-12.21 -0.47,-37.48 0.26,-46.67z"/>
   <path class="fil1" d="M203.07 214.43c2.75,9.51 -1.74,51.45 2.48,57.02 3.48,4.59 9.99,2.3 11.85,-1.7 1.44,-3.09 0.82,-33.08 0.82,-38.96 0,-15.33 1.95,-24.21 -6.84,-32.29 -4.67,-4.28 -6.88,-4.26 -14,-4.4 -7.43,-0.16 -29.39,-0.59 -35.59,0.14 -5.27,0.61 -8.82,3.88 -11.36,6.91 -3.3,3.9 -4.15,8.52 -4.21,15.29l-0.17 39.69c0.04,6.35 -0.77,13.48 3.04,16.33 4.83,3.61 10.5,0.16 11.25,-4.9 0.7,-4.73 0.37,-32.34 0.37,-39.16 0,-3.73 -0.7,-13.07 0.84,-14.04 4.09,-2.55 2.52,15.03 2.54,21.19l0.02 59.31c0,15.22 -0.32,34.7 0.31,49.63 0.56,13.09 12.25,10.24 14.79,5.25 2,-3.91 0.89,-56.02 1.22,-68.37 0.09,-3.21 -0.74,-6.96 2.3,-7.09 1.32,1.73 0.96,11.58 0.98,14.36l0.09 44.48c0.07,9.1 -1.48,20.37 7.98,20.59 10.7,0.24 8.37,-12.44 8.38,-20.13 0,-8.42 -0.26,-113.47 0.3,-118.91 1.63,-0.62 1.06,-0.72 2.61,-0.24z"/>
   <path class="fil1" d="M245.29 154.24c-3.18,1.45 -2.81,1.19 -2.92,9.62 -0.65,46.65 -0.16,96.53 -0.16,143.43l0 39.21c-0.01,2.66 -0.28,9.06 5.42,7.14 3.48,-1.18 2.54,-5.19 2.54,-10.02l-0.06 -169.72c0,-2.64 0.33,-16.66 -0.86,-18.38 -0.74,-1.03 -2.56,-1.92 -3.96,-1.28z"/>
   <path class="fil1" d="M303.43 154.16c-8.45,0.94 -15.54,9.1 -14.66,19.59 0.77,9.42 8.37,17.13 18,16.15 8.21,-0.85 15.55,-9.62 14.22,-20.3 -1.13,-9.14 -8.42,-16.46 -17.56,-15.44z"/>
   <path class="fil1" d="M178.31 154.54c-19.04,5.4 -15.03,39.29 7.74,34.93 4.47,-0.86 7.35,-4.57 9.36,-7.23 2.55,-3.38 3.41,-9.01 2.61,-14.33 -1.24,-8.3 -10.22,-16.05 -19.71,-13.37z"/>
  </g>
 </g>
</svg>
