<?xml version="1.0" encoding="UTF-8"?>
<!DOCTYPE svg PUBLIC "-//W3C//DTD SVG 1.1//EN" "http://www.w3.org/Graphics/SVG/1.1/DTD/svg11.dtd">
<!-- Creator: CorelDRAW 2020 (64-Bit) -->
<svg xmlns="http://www.w3.org/2000/svg" xml:space="preserve" width="5mm" height="5mm" version="1.1" style="shape-rendering:geometricPrecision; text-rendering:geometricPrecision; image-rendering:optimizeQuality; fill-rule:evenodd; clip-rule:evenodd"
viewBox="0 0 500 500"
 xmlns:xlink="http://www.w3.org/1999/xlink"
 xmlns:xodm="http://www.corel.com/coreldraw/odm/2003">
 <defs>
  <style type="text/css">
   <![CDATA[
    .str4 {stroke:#2B2A29;stroke-miterlimit:22.9256}
    .str6 {stroke:#2B2A29;stroke-width:2;stroke-miterlimit:22.9256}
    .str0 {stroke:#2B2A29;stroke-width:10;stroke-miterlimit:22.9256}
    .str5 {stroke:#FEFEFE;stroke-width:5;stroke-miterlimit:22.9256}
    .str2 {stroke:#2B2A29;stroke-width:5;stroke-miterlimit:22.9256}
    .str1 {stroke:#2B2A29;stroke-width:7.62;stroke-miterlimit:22.9256}
    .str3 {stroke:#2B2A29;stroke-width:5;stroke-linecap:round;stroke-miterlimit:22.9256}
    .fil1 {fill:none}
    .fil0 {fill:#FEFEFE}
    .fil2 {fill:#2B2A29}
   ]]>
  </style>
 </defs>
 <g id="Layer_x0020_1">
  <metadata id="CorelCorpID_0Corel-Layer"/>
  <path class="fil0 str0" d="M246 104c82.84,0 150,67.16 150,150 0,82.84 -67.16,150 -150,150 -82.84,0 -150,-67.16 -150,-150 0,-82.84 67.16,-150 150,-150zm81.26 153.85c5.6,3.03 8.74,6.41 8.74,9.99 0,12.84 -40.3,23.25 -90,23.25 -49.7,0 -90,-10.41 -90,-23.25 0,-3.58 3.14,-6.96 8.74,-9.99 14.48,7.84 45.42,13.24 81.26,13.24 35.84,0 66.78,-5.4 81.26,-13.24z"/>
  <ellipse class="fil1 str1" cx="246" cy="217.84" rx="90" ry="23.24"/>
  <path class="fil0" d="M327.26 257.85c5.6,2.54 8.74,5.37 8.74,8.37 0,10.76 -40.3,19.49 -90,19.49 -49.7,0 -90,-8.73 -90,-19.49 0,-3 3.14,-5.83 8.74,-8.37 14.48,6.57 45.42,11.1 81.26,11.1 35.84,0 66.78,-4.53 81.26,-11.1z"/>
  <ellipse class="fil1 str2" cx="244.16" cy="228.11" rx="61.39" ry="10.54"/>
  <line class="fil1 str2" x1="327.26" y1="257.85" x2="326.35" y2= "228.33" />
  <line class="fil1 str2" x1="164.74" y1="257.85" x2="164.88" y2= "227.92" />
  <path class="fil1 str3" d="M161.02 238.6c59.81,17.94 116.83,17.23 171.29,-1"/>
  <path class="fil1 str3" d="M160.43 248.14c60.12,18.57 117.44,17.84 172.19,-1.04"/>
  <path class="fil2" d="M339.5 337.93l-190.63 -0.97c0,-24.11 1.86,-48.23 1.86,-72.34 10.77,0.32 -4.99,-0.25 6.04,0.17 -2.42,31.54 183.5,32.24 181.91,0.68 12.62,-0.23 -10.12,0.18 2.5,-0.05l-1.68 72.51z"/>
  <rect class="fil0 str4" x="217.82" y="246.45" width="60.57" height="51.06"/>
  <path class="fil2" d="M249.68 270.75l-10.33 0c0,-4.73 4.62,-8.57 10.33,-8.57 5.71,0 10.33,3.84 10.33,8.57l-10.33 0z"/>
  <line class="fil1 str5" x1="235.93" y1="294" x2="207.51" y2= "347.18" />
  <line class="fil1 str5" x1="263.37" y1="294.51" x2="291.79" y2= "347.69" />
  <rect class="fil2" x="237.06" y="273.04" width="25.02" height="24.47"/>
  <line class="fil1 str6" x1="323.9" y1="209.1" x2="299.88" y2= "223.68" />
  <line class="fil1 str6" x1="275.28" y1="219.02" x2="281.64" y2= "196.49" />
  <line class="fil1 str6" x1="244.16" y1="217.57" x2="239.99" y2= "194.65" />
  <line class="fil1 str6" x1="213.35" y1="218.99" x2="198.18" y2= "198.15" />
  <line class="fil1 str6" x1="187.46" y1="224.06" x2="157.32" y2= "213.85" />
  <line class="fil1 str6" x1="183.87" y1="234.66" x2="183.82" y2= "261.94" />
  <line class="fil1 str6" x1="203.82" y1="236.89" x2="203.77" y2= "264.17" />
  <line class="fil1 str6" x1="293.82" y1="236.89" x2="293.77" y2= "264.17" />
  <line class="fil1 str6" x1="313.93" y1="233.37" x2="313.88" y2= "260.65" />
  <polygon class="fil2" points="348.64,197.44 337.94,194.58 327.25,191.71 327.25,197.44 327.25,203.17 337.94,200.3 "/>
  <polygon class="fil2" points="304,187.11 293.3,184.25 282.61,181.38 282.61,187.11 282.61,192.84 293.3,189.97 "/>
  <polygon class="fil2" points="261.41,185.04 250.71,182.18 240.02,179.31 240.02,185.04 240.02,190.77 250.71,187.9 "/>
  <polygon class="fil2" points="220.9,188.35 210.2,185.49 199.51,182.62 199.51,188.35 199.51,194.08 210.2,191.21 "/>
  <polygon class="fil2" points="177.08,203.65 166.38,200.79 155.69,197.92 155.69,203.65 155.69,209.38 166.38,206.51 "/>
  <rect class="fil2" x="184.74" y="212.32" width="5.37" height="4.14"/>
  <rect class="fil2" transform="matrix(0.999076 -0.042986 0.042986 0.999076 224.659 204.288)" width="5.37" height="4.14"/>
  <rect class="fil2" transform="matrix(0.999076 -0.042986 0.042986 0.999076 256.369 204.658)" width="5.37" height="4.14"/>
  <rect class="fil2" transform="matrix(0.999076 -0.042986 0.042986 0.999076 293.779 208.588)" width="5.37" height="4.14"/>
  <rect class="fil2" transform="matrix(0.999076 -0.042986 0.042986 0.999076 316.459 224.728)" width="5.37" height="4.14"/>
 </g>
</svg>
