<?xml version="1.0" encoding="UTF-8"?>
<!DOCTYPE svg PUBLIC "-//W3C//DTD SVG 1.1//EN" "http://www.w3.org/Graphics/SVG/1.1/DTD/svg11.dtd">
<!-- Creator: CorelDRAW 2020 (64-Bit) -->
<svg xmlns="http://www.w3.org/2000/svg" xml:space="preserve" width="5mm" height="5mm" version="1.1" style="shape-rendering:geometricPrecision; text-rendering:geometricPrecision; image-rendering:optimizeQuality; fill-rule:evenodd; clip-rule:evenodd"
viewBox="0 0 500 500"
 xmlns:xlink="http://www.w3.org/1999/xlink"
 xmlns:xodm="http://www.corel.com/coreldraw/odm/2003">
 <defs>
  <style type="text/css">
   <![CDATA[
    .str0 {stroke:#2B2A29;stroke-width:10;stroke-miterlimit:22.9256}
    .str1 {stroke:#2B2A29;stroke-width:2;stroke-linecap:round;stroke-miterlimit:22.9256}
    .fil1 {fill:none}
    .fil0 {fill:#FEFEFE}
    .fil2 {fill:#2B2A29}
   ]]>
  </style>
 </defs>
 <g id="Layer_x0020_1">
  <metadata id="CorelCorpID_0Corel-Layer"/>
  <circle class="fil0 str0" cx="246" cy="254" r="150"/>
  <g id="_1197139136">
   <path class="fil1 str1" d="M211 351.53l24.5 -160.77 19.59 0 25.91 163.24m0 0l-59.71 -69.95m0 0l40.76 -49.52m-51.05 117l58.4 -70.64m0 0l-40.51 -46.69"/>
   <rect class="fil2" x="239.17" y="178.27" width="13.65" height="11.76"/>
   <path class="fil2" d="M252.82 178.27c8.11,-4.05 21.43,-16.46 25.56,-24.27 -8.6,2.96 -22,15.26 -25.56,24.27z"/>
   <path class="fil2" d="M239.72 178.27c-8.11,-4.05 -21.43,-16.46 -25.56,-24.27 8.6,2.96 22,15.26 25.56,24.27z"/>
   <path class="fil2" d="M239.72 190.47c-8.11,4.05 -21.43,16.46 -25.56,24.27 8.6,-2.96 22,-15.26 25.56,-24.27z"/>
   <path class="fil2" d="M252.82 190.47c8.11,4.05 21.43,16.46 25.56,24.27 -8.6,-2.96 -22,-15.26 -25.56,-24.27z"/>
  </g>
 </g>
</svg>
