<?xml version="1.0" encoding="utf-8"?>
<!-- Generator: Adobe Illustrator 19.0.0, SVG Export Plug-In . SVG Version: 6.00 Build 0)  -->
<svg version="1.1" id="Capa_1" xmlns="http://www.w3.org/2000/svg" xmlns:xlink="http://www.w3.org/1999/xlink" x="0px" y="0px"
	 viewBox="-291 383.3 27.8 27.8" style="enable-background:new -291 383.3 27.8 27.8;" xml:space="preserve">
<style type="text/css">
	.st0{fill:#4FD0FC;stroke:#076663;stroke-width:0.75;stroke-miterlimit:10;}
</style>
<path class="st0" d="M-277.1,410c-1.2-1.1-2.3-2.2-3.5-3.2c-2,0-4,0.1-6,0.1c-0.2,0-1.3,0.1-2.2-1c-0.7-0.8-0.8-1.8-0.8-2.1
	c0-5.5,0-11,0-16.4c0-0.3,0.2-1.3,0.9-2.1c0.8-0.9,1.8-0.9,2-0.9c6.4,0,12.9,0.1,19.3,0.1c0.2,0,1.1,0.1,1.8,0.9
	c0.7,0.8,0.9,1.8,0.9,2.1c0,5.4,0,10.9,0,16.3c0,0.2-0.1,1.3-0.8,2.2c-0.8,0.9-1.7,1-1.9,0.9c-2,0-4.1,0-6.1,0.1
	C-274.8,407.9-276,409-277.1,410z"/>
<path d="M-277.1,407.1"/>
<g>
	<path d="M-277,398.3c0.6,0,1.1-0.5,1.1-1.1s-0.5-1.1-1.1-1.1c-0.6,0-1.1,0.5-1.1,1.1C-278.1,397.8-277.6,398.3-277,398.3z"/>
	<path d="M-282,404.6h10.1c0.2,0,0.4-0.2,0.4-0.4v-0.7c0-0.2-0.2-0.4-0.4-0.4h-0.5v-1.1c0-0.2-0.2-0.4-0.4-0.4h-0.6h-7.1h-0.6
		c-0.2,0-0.4,0.2-0.4,0.4v1.1h-0.5c-0.2,0-0.4,0.2-0.4,0.4v0.7C-282.4,404.4-282.3,404.6-282,404.6z"/>
	<path d="M-281.2,398.5h0.7v2.3h7.1v-2.3h0.7c0.2,0,0.4-0.2,0.4-0.4v-1.8c0-0.2-0.2-0.4-0.4-0.4h-0.7v-2.2h-7.1v2.2h-0.7
		c-0.2,0-0.4,0.2-0.4,0.4v1.8C-281.6,398.3-281.5,398.5-281.2,398.5z M-277,395.3c1.1,0,2,0.9,2,2c0,1.1-0.9,2-2,2c-1.1,0-2-0.9-2-2
		C-279,396.2-278.1,395.3-277,395.3z"/>
	<path d="M-273,391.6h-0.4v-1c0-1.7-1.2-3.1-2.8-3.5v-0.2c0-0.4-0.4-0.8-0.8-0.8l0,0c-0.4,0-0.8,0.3-0.8,0.8v0.2
		c-1.6,0.4-2.8,1.8-2.8,3.5v1h-0.4c-0.2,0-0.4,0.2-0.4,0.4v0.7c0,0.2,0.2,0.4,0.4,0.4h0.4h7.1h0.4c0.2,0,0.4-0.2,0.4-0.4v-0.7
		C-272.6,391.7-272.8,391.6-273,391.6z"/>
</g>
</svg>
