<?xml version="1.0" encoding="utf-8"?>
<!-- Generator: Adobe Illustrator 19.0.0, SVG Export Plug-In . SVG Version: 6.00 Build 0)  -->
<svg version="1.1" id="Capa_1" xmlns="http://www.w3.org/2000/svg" xmlns:xlink="http://www.w3.org/1999/xlink" x="0px" y="0px"
	 viewBox="-291 383.3 27.8 27.8" style="enable-background:new -291 383.3 27.8 27.8;" xml:space="preserve">
<style type="text/css">
	.st0{fill:#936547;stroke:#593C1F;stroke-width:0.75;stroke-miterlimit:10;}
	.st1{fill:#FFFFFF;}
</style>
<path class="st0" d="M-277.1,410c-1.2-1.1-2.3-2.2-3.5-3.2c-2,0-4,0.1-6,0.1c-0.2,0-1.3,0.1-2.2-1c-0.7-0.8-0.8-1.8-0.8-2.1
	c0-5.5,0-11,0-16.4c0-0.3,0.2-1.3,0.9-2.1c0.8-0.9,1.8-0.9,2-0.9c6.4,0,12.9,0.1,19.3,0.1c0.2,0,1.1,0.1,1.8,0.9
	c0.7,0.8,0.9,1.8,0.9,2.1c0,5.4,0,10.9,0,16.3c0,0.2-0.1,1.3-0.8,2.2c-0.8,0.9-1.7,1-1.9,0.9c-2,0-4.1,0-6.1,0.1
	C-274.8,407.9-276,409-277.1,410z"/>
<path d="M-277.1,407.1"/>
<g>
	<path class="st1" d="M-283.7,395.3c0-2.7,1.7-5,4-6l1.2-2.4c-4.1,0.6-7.3,4.1-7.3,8.4c0,3.9,2.6,7.2,6.2,8.2l0.2-2.1
		C-281.8,400.5-283.7,398.1-283.7,395.3z"/>
	<path class="st1" d="M-268.7,395.3c0-3.9-2.6-7.2-6.2-8.2l-0.2,2.1c2.6,0.9,4.4,3.3,4.4,6.1c0,2.7-1.7,5-4,6l-1.2,2.4
		C-271.9,403.1-268.7,399.6-268.7,395.3z"/>
	<path class="st1" d="M-272.3,394.3c0.1-0.2,0.1-0.3,0-0.5c-0.1-0.2-0.3-0.2-0.4-0.2h-3.9l0.8-7.3c0-0.2-0.1-0.5-0.4-0.6
		c0,0-0.1,0-0.1,0c-0.2,0-0.4,0.1-0.5,0.3l-5.3,10.6c-0.1,0.2-0.1,0.4,0,0.5c0.1,0.2,0.3,0.3,0.4,0.3h3.8l-0.8,7
		c0,0.2,0.1,0.5,0.4,0.5c0,0,0.1,0,0.1,0c0.2,0,0.4-0.1,0.5-0.3L-272.3,394.3z"/>
</g>
</svg>
