<?xml version="1.0" encoding="utf-8"?>
<!-- Generator: Adobe Illustrator 19.0.0, SVG Export Plug-In . SVG Version: 6.00 Build 0)  -->
<svg version="1.1" id="Capa_1" xmlns="http://www.w3.org/2000/svg" xmlns:xlink="http://www.w3.org/1999/xlink" x="0px" y="0px"
	 viewBox="-291 383.3 27.8 27.8" style="enable-background:new -291 383.3 27.8 27.8;" xml:space="preserve">
<style type="text/css">
	.st0{fill:#FF891F;stroke:#E06000;stroke-width:0.75;stroke-miterlimit:10;}
</style>
<path class="st0" d="M-277.1,410c-1.2-1.1-2.3-2.2-3.5-3.2c-2,0-4,0.1-6,0.1c-0.2,0-1.3,0.1-2.2-1c-0.7-0.8-0.8-1.8-0.8-2.1
	c0-5.5,0-11,0-16.4c0-0.3,0.2-1.3,0.9-2.1c0.8-0.9,1.8-0.9,2-0.9c6.4,0,12.9,0.1,19.3,0.1c0.2,0,1.1,0.1,1.8,0.9
	c0.7,0.8,0.9,1.8,0.9,2.1c0,5.4,0,10.9,0,16.3c0,0.2-0.1,1.3-0.8,2.2c-0.8,0.9-1.7,1-1.9,0.9c-2,0-4.1,0-6.1,0.1
	C-274.8,407.9-276,409-277.1,410z"/>
<path d="M-277.1,407.1"/>
<g>
	<g>
		<path d="M-280.4,397.3v0.4h2.5v-0.4c0-1.1-0.4-2.2-1.2-3l0,0l0,0C-280,395.1-280.4,396.2-280.4,397.3z"/>
		<path d="M-268.7,400.4l-5.2-2.1v-0.6l0.3,0.3c0.2,0.2,0.6,0.3,0.9,0l0.7-0.6c0.2-0.2,0.3-0.6,0-0.9l-6.4-6.9v-1.5h0.5
			c0.3,0,0.5-0.2,0.5-0.5v-0.4c0-0.3-0.3-0.5-0.5-0.5h-0.5V386c0-0.3-0.3-0.5-0.5-0.5h-0.4c-0.3,0-0.5,0.2-0.5,0.5v0.8h-0.5
			c-0.3,0-0.5,0.2-0.5,0.5v0.4c0,0.3,0.2,0.5,0.5,0.5h0.5v1.5l-6.4,6.9c-0.2,0.2-0.2,0.6,0,0.9l0.7,0.6c0.2,0.2,0.6,0.2,0.9,0
			l0.3-0.3v6.5c0,0.4,0.3,0.7,0.7,0.7h14.7c0.4,0,0.7-0.3,0.7-0.7V401C-268.3,400.7-268.5,400.5-268.7,400.4z M-275.4,403.5h-2v-2.2
			c0-1-0.8-1.8-1.8-1.8h0c-1,0-1.8,0.8-1.8,1.8v2.2h-2v-7.4l3.8-4.1l3.8,4.1L-275.4,403.5L-275.4,403.5z M-269.6,403.6h-4.3v-4
			l4.3,1.7V403.6z"/>
	</g>
</g>
</svg>
