<?xml version="1.0" encoding="utf-8"?>
<!-- Generator: Adobe Illustrator 19.0.0, SVG Export Plug-In . SVG Version: 6.00 Build 0)  -->
<svg version="1.1" id="Capa_1" xmlns="http://www.w3.org/2000/svg" xmlns:xlink="http://www.w3.org/1999/xlink" x="0px" y="0px"
	 viewBox="-291 383.3 27.8 27.8" style="enable-background:new -291 383.3 27.8 27.8;" xml:space="preserve">
<style type="text/css">
	.st0{fill:#49AA31;stroke:#256819;stroke-width:0.75;stroke-miterlimit:10;}
	.st1{fill:#FFFFFF;}
</style>
<path class="st0" d="M-277.1,410c-1.2-1.1-2.3-2.2-3.5-3.2c-2,0-4,0.1-6,0.1c-0.2,0-1.3,0.1-2.2-1c-0.7-0.8-0.8-1.8-0.8-2.1
	c0-5.5,0-11,0-16.4c0-0.3,0.2-1.3,0.9-2.1c0.8-0.9,1.8-0.9,2-0.9c6.4,0,12.9,0.1,19.3,0.1c0.2,0,1.1,0.1,1.8,0.9
	c0.7,0.8,0.9,1.8,0.9,2.1c0,5.4,0,10.9,0,16.3c0,0.2-0.1,1.3-0.8,2.2c-0.8,0.9-1.7,1-1.9,0.9c-2,0-4.1,0-6.1,0.1
	C-274.8,407.9-276,409-277.1,410z"/>
<path d="M-277.1,407.1"/>
<path class="st1" d="M-268.8,387.4C-268.8,387.3-268.8,387.3-268.8,387.4c-0.6-0.6-1.4-0.9-2.2-0.9c-0.9,0-1.7,0.3-2.3,0.9l-1,1
	l-10.3,4.2c-1,0.4-1.4,1.1-1.4,1.6c-0.2,0.8,0.2,1.7,0.9,2.4c0.6,0.6,1.4,0.9,2.3,0.9c0.1,0,0.3,0,0.4,0c-0.2,0.9,0.1,1.9,0.7,2.6
	c0,0,0,0,0,0c0.5,0.5,1.3,0.8,2,0.8c0.2,0,0.4,0,0.6-0.1c-0.1,1,0.2,2.1,0.9,2.8c0.6,0.6,1.4,1,2.1,1h0c0.5,0,1.4-0.2,1.9-1.5
	l4.2-10.3l1-1C-267.6,390.6-267.6,388.6-268.8,387.4z M-272.4,395.6l-0.9-0.9l1.8-2.4l0.3,0.3L-272.4,395.6z M-274.1,399.8l-1.8-1.8
	l1.8-2.4l1.2,1.2L-274.1,399.8z M-278.3,391.5l1.2,1.2l-2.4,1.8l-1.8-1.8L-278.3,391.5z M-274.1,389.7l0.3,0.3l-2.4,1.8l-0.9-0.9
	L-274.1,389.7z M-276.2,393.6l1.2,1.2l-1.8,2.4l-1.8-1.8L-276.2,393.6z M-274.3,393.8l-1-1l2.4-1.8l0.4,0.4L-274.3,393.8z
	 M-282.8,396.3c-0.6,0-1.1-0.2-1.4-0.5c-0.4-0.4-0.7-0.9-0.6-1.3c0.1-0.3,0.3-0.5,0.7-0.6l1.5-0.6l2.1,2.1l-0.9,0.7
	C-281.8,396.2-282.3,396.3-282.8,396.3z M-279.6,399.7c-0.4,0-0.8-0.2-1.1-0.4c-0.6-0.7-0.6-1.6,0-2.3l1-0.8l2,2l-0.8,1
	C-278.7,399.5-279.1,399.7-279.6,399.7z M-275.3,402.6c-0.3,0.7-0.6,0.7-0.8,0.7c-0.3,0-0.8-0.2-1.2-0.6c-0.6-0.6-0.7-1.8-0.2-2.8
	l0.7-0.9l2.1,2.1L-275.3,402.6z M-269.8,390.9l-0.7,0.7l-2.6-2.6l0.7-0.7c0.4-0.4,0.9-0.6,1.4-0.6c0.5,0,0.9,0.2,1.3,0.5
	C-269,389-269,390.2-269.8,390.9z"/>
</svg>
