<?xml version="1.0" encoding="utf-8"?>
<!-- Generator: Adobe Illustrator 19.0.0, SVG Export Plug-In . SVG Version: 6.00 Build 0)  -->
<svg version="1.1" id="Capa_1" xmlns="http://www.w3.org/2000/svg" xmlns:xlink="http://www.w3.org/1999/xlink" x="0px" y="0px"
	 viewBox="-291 383.3 27.8 27.8" style="enable-background:new -291 383.3 27.8 27.8;" xml:space="preserve">
<style type="text/css">
	.st0{fill:#2375D8;stroke:#143D84;stroke-width:0.75;stroke-miterlimit:10;}
	.st1{fill:#FFFFFF;}
</style>
<path class="st0" d="M-277.1,410c-1.2-1.1-2.3-2.2-3.5-3.2c-2,0-4,0.1-6,0.1c-0.2,0-1.3,0.1-2.2-1c-0.7-0.8-0.8-1.8-0.8-2.1
	c0-5.5,0-11,0-16.4c0-0.3,0.2-1.3,0.9-2.1c0.8-0.9,1.8-0.9,2-0.9c6.4,0,12.9,0.1,19.3,0.1c0.2,0,1.1,0.1,1.8,0.9
	c0.7,0.8,0.9,1.8,0.9,2.1c0,5.4,0,10.9,0,16.3c0,0.2-0.1,1.3-0.8,2.2c-0.8,0.9-1.7,1-1.9,0.9c-2,0-4.1,0-6.1,0.1
	C-274.8,407.9-276,409-277.1,410z"/>
<path d="M-277.1,407.1"/>
<g>
	<g>
		<path class="st1" d="M-267.7,403.4l-1.8-6.2c-0.1-0.2-0.2-0.3-0.4-0.3h-0.8v3.2c0,0.7-0.6,1.3-1.3,1.3h-10.1
			c-0.7,0-1.3-0.6-1.3-1.3c0,0,0,0,0,0c0,0,0,0,0,0v-3.2h-0.8c-0.2,0-0.4,0.1-0.4,0.3l-1.8,6.2c0,0.1,0,0.3,0.1,0.4
			c0.1,0.1,0.2,0.2,0.4,0.2c0,0,17.8,0,17.8,0c0.1,0,0.3-0.1,0.4-0.2C-267.7,403.7-267.7,403.5-267.7,403.4z"/>
		<path class="st1" d="M-283.3,393.6l6.2-5.4l6.2,5.4c0.1,0.1,0.3,0.2,0.4,0.2c0.2,0,0.4-0.1,0.5-0.2c0.2-0.3,0.2-0.7-0.1-0.9
			l-6.7-5.7c-0.2-0.2-0.6-0.2-0.9,0l-6.7,5.7c-0.3,0.2-0.3,0.7-0.1,0.9C-284,393.8-283.6,393.8-283.3,393.6z"/>
		<path class="st1" d="M-277.3,389.1l-5,4.3c-0.1,0.1-0.2,0.2-0.2,0.3v6.3c0,0.2,0.2,0.4,0.4,0.4h10.1c0.2,0,0.4-0.2,0.4-0.4v-6.3
			c0-0.1-0.1-0.3-0.2-0.3l-5-4.3C-276.9,388.9-277.2,388.9-277.3,389.1z M-277.5,398.5c0,0.2-0.2,0.4-0.4,0.4h-1.6
			c-0.2,0-0.4-0.2-0.4-0.4v-1.6c0-0.2,0.2-0.4,0.4-0.4h1.6c0.2,0,0.4,0.2,0.4,0.4V398.5z M-277.5,395.2c0,0.2-0.2,0.4-0.4,0.4h-1.6
			c-0.2,0-0.4-0.2-0.4-0.4v-1.6c0-0.2,0.2-0.4,0.4-0.4h1.6c0.2,0,0.4,0.2,0.4,0.4V395.2z M-276.6,393.6c0-0.2,0.2-0.4,0.4-0.4h1.6
			c0.2,0,0.4,0.2,0.4,0.4v1.6c0,0.2-0.2,0.4-0.4,0.4h-1.6c-0.2,0-0.4-0.2-0.4-0.4V393.6z M-276.6,396.9c0-0.2,0.2-0.4,0.4-0.4h1.6
			c0.2,0,0.4,0.2,0.4,0.4v1.6c0,0.2-0.2,0.4-0.4,0.4h-1.6c-0.2,0-0.4-0.2-0.4-0.4V396.9z"/>
	</g>
</g>
</svg>
