<?xml version="1.0" encoding="utf-8"?>
<!-- Generator: Adobe Illustrator 19.0.0, SVG Export Plug-In . SVG Version: 6.00 Build 0)  -->
<svg version="1.1" id="Capa_1" xmlns="http://www.w3.org/2000/svg" xmlns:xlink="http://www.w3.org/1999/xlink" x="0px" y="0px"
	 viewBox="-291 383.3 27.8 27.8" style="enable-background:new -291 383.3 27.8 27.8;" xml:space="preserve">
<style type="text/css">
	.st0{fill:#2375D8;stroke:#143D84;stroke-width:0.75;stroke-miterlimit:10;}
	.st1{fill:#FFFFFF;}
</style>
<path class="st0" d="M-277.1,410c-1.2-1.1-2.3-2.2-3.5-3.2c-2,0-4,0.1-6,0.1c-0.2,0-1.3,0.1-2.2-1c-0.7-0.8-0.8-1.8-0.8-2.1
	c0-5.5,0-11,0-16.4c0-0.3,0.2-1.3,0.9-2.1c0.8-0.9,1.8-0.9,2-0.9c6.4,0,12.9,0.1,19.3,0.1c0.2,0,1.1,0.1,1.8,0.9
	c0.7,0.8,0.9,1.8,0.9,2.1c0,5.4,0,10.9,0,16.3c0,0.2-0.1,1.3-0.8,2.2c-0.8,0.9-1.7,1-1.9,0.9c-2,0-4.1,0-6.1,0.1
	C-274.8,407.9-276,409-277.1,410z"/>
<path d="M-277.1,407.1"/>
<g>
	<g>
		<path class="st1" d="M-281.6,403.3h3.4v-3.5h2v3.5h3.4v-15.5h-8.8V403.3z M-276.6,389.6h2v2h-2V389.6z M-276.6,392.9h2v2h-2V392.9
			z M-276.6,396.1h2v2h-2V396.1z M-279.8,389.6h2v2h-2V389.6z M-279.8,392.9h2v2h-2V392.9z M-279.8,396.1h2v2h-2V396.1z"/>
		<path class="st1" d="M-272,389.2v11h1.3v3.1h3.1v-14.1H-272z M-269.2,398.6h-1.9v-1.9h1.9L-269.2,398.6L-269.2,398.6z
			 M-269.2,395.6h-1.9v-1.9h1.9L-269.2,395.6L-269.2,395.6z M-269.2,392.7h-1.9v-1.9h1.9L-269.2,392.7L-269.2,392.7z"/>
		<path class="st1" d="M-286.8,403.3h3.1v-3.1h1.3v-11h-4.4V403.3z M-285.2,390.8h1.9v1.9h-1.9V390.8z M-285.2,393.8h1.9v1.9h-1.9
			V393.8z M-285.2,396.8h1.9v1.9h-1.9V396.8z"/>
	</g>
</g>
</svg>
