<?xml version="1.0" encoding="utf-8"?>
<!-- Generator: Adobe Illustrator 19.0.0, SVG Export Plug-In . SVG Version: 6.00 Build 0)  -->
<svg version="1.1" id="Capa_1" xmlns="http://www.w3.org/2000/svg" xmlns:xlink="http://www.w3.org/1999/xlink" x="0px" y="0px"
	 viewBox="-291 383.3 27.8 27.8" style="enable-background:new -291 383.3 27.8 27.8;" xml:space="preserve">
<style type="text/css">
	.st0{fill:#2375D8;stroke:#143D84;stroke-width:0.75;stroke-miterlimit:10;}
	.st1{fill:#FFFFFF;}
</style>
<path class="st0" d="M-277.1,410c-1.2-1.1-2.3-2.2-3.5-3.2c-2,0-4,0.1-6,0.1c-0.2,0-1.3,0.1-2.2-1c-0.7-0.8-0.8-1.8-0.8-2.1
	c0-5.5,0-11,0-16.4c0-0.3,0.2-1.3,0.9-2.1c0.8-0.9,1.8-0.9,2-0.9c6.4,0,12.9,0.1,19.3,0.1c0.2,0,1.1,0.1,1.8,0.9
	c0.7,0.8,0.9,1.8,0.9,2.1c0,5.4,0,10.9,0,16.3c0,0.2-0.1,1.3-0.8,2.2c-0.8,0.9-1.7,1-1.9,0.9c-2,0-4.1,0-6.1,0.1
	C-274.8,407.9-276,409-277.1,410z"/>
<path d="M-277.1,407.1"/>
<g>
	<g>
		<path class="st1" d="M-271,393h-2.3c-0.1-2.3-1.5-4.2-3.3-4.4c-0.1-1.4-0.3-2.5-0.3-2.5s-0.3,1.1-0.3,2.5
			c-1.8,0.2-3.2,2.1-3.3,4.4h-2.3v0.9h11.8V393z"/>
		<rect x="-282.4" y="394.1" class="st1" width="0.9" height="3.7"/>
		<rect x="-280" y="394.1" class="st1" width="0.9" height="3.7"/>
		<rect x="-274.9" y="394.1" class="st1" width="0.9" height="3.7"/>
		<rect x="-272.5" y="394.1" class="st1" width="0.9" height="3.7"/>
		<rect x="-277.4" y="394.1" class="st1" width="0.9" height="3.7"/>
		<rect x="-284.7" y="399.3" class="st1" width="0.9" height="3.7"/>
		<rect x="-282.3" y="399.3" class="st1" width="0.9" height="3.7"/>
		<rect x="-277.2" y="399.3" class="st1" width="0.9" height="3.7"/>
		<polygon class="st1" points="-271,398.1 -282.8,398.1 -285,398.1 -285,399 -268.9,399 -268.9,398.1 		"/>
		<rect x="-285" y="403.3" class="st1" width="16" height="0.9"/>
		<rect x="-274.8" y="399.3" class="st1" width="0.9" height="3.7"/>
		<rect x="-272.5" y="399.3" class="st1" width="0.9" height="3.7"/>
		<rect x="-270.1" y="399.3" class="st1" width="0.9" height="3.7"/>
		<rect x="-279.7" y="399.3" class="st1" width="0.9" height="3.7"/>
	</g>
</g>
</svg>
