<?xml version="1.0" encoding="utf-8"?>
<!-- Generator: Adobe Illustrator 19.0.0, SVG Export Plug-In . SVG Version: 6.00 Build 0)  -->
<svg version="1.1" id="Capa_1" xmlns="http://www.w3.org/2000/svg" xmlns:xlink="http://www.w3.org/1999/xlink" x="0px" y="0px"
	 viewBox="-291 383.3 27.8 27.8" style="enable-background:new -291 383.3 27.8 27.8;" xml:space="preserve">
<style type="text/css">
	.st0{fill:#2375D8;stroke:#143D84;stroke-width:0.75;stroke-miterlimit:10;}
	.st1{fill:#FFFFFF;}
</style>
<path class="st0" d="M-277.1,410c-1.2-1.1-2.3-2.2-3.5-3.2c-2,0-4,0.1-6,0.1c-0.2,0-1.3,0.1-2.2-1c-0.7-0.8-0.8-1.8-0.8-2.1
	c0-5.5,0-11,0-16.4c0-0.3,0.2-1.3,0.9-2.1c0.8-0.9,1.8-0.9,2-0.9c6.4,0,12.9,0.1,19.3,0.1c0.2,0,1.1,0.1,1.8,0.9
	c0.7,0.8,0.9,1.8,0.9,2.1c0,5.4,0,10.9,0,16.3c0,0.2-0.1,1.3-0.8,2.2c-0.8,0.9-1.7,1-1.9,0.9c-2,0-4.1,0-6.1,0.1
	C-274.8,407.9-276,409-277.1,410z"/>
<path d="M-277.1,407.1"/>
<g>
	<g>
		<path class="st1" d="M-280.6,395.2C-280.6,395.2-280.6,395.2-280.6,395.2l2.4-0.1c0.1,0,0.1-0.1,0.1-0.1v-3.7c0,0,0-0.1,0-0.1
			c0,0-0.1,0-0.1,0l-2.4,0.5c-0.1,0-0.1,0.1-0.1,0.1v3.3C-280.8,395.1-280.7,395.1-280.6,395.2
			C-280.7,395.2-280.7,395.2-280.6,395.2z"/>
		<path class="st1" d="M-283.6,395.2C-283.6,395.2-283.6,395.2-283.6,395.2l1.7,0c0.1,0,0.1-0.1,0.1-0.1V392c0,0,0-0.1,0-0.1
			c0,0-0.1,0-0.1,0l-1.7,0.3c-0.1,0-0.1,0.1-0.1,0.1v2.8C-283.7,395.2-283.7,395.2-283.6,395.2
			C-283.7,395.2-283.6,395.2-283.6,395.2z"/>
		<path class="st1" d="M-285.8,395.3C-285.8,395.3-285.8,395.3-285.8,395.3l1.2,0c0.1,0,0.1-0.1,0.1-0.1v-2.6c0,0,0-0.1,0-0.1
			c0,0-0.1,0-0.1,0l-1.2,0.2c-0.1,0-0.1,0.1-0.1,0.1v2.4C-285.9,395.2-285.9,395.2-285.8,395.3
			C-285.9,395.3-285.8,395.3-285.8,395.3z"/>
		<path class="st1" d="M-280.7,399.5l2.4,0.5c0,0,0,0,0,0c0,0,0.1,0,0.1,0c0,0,0-0.1,0-0.1v-3.7c0-0.1,0-0.1-0.1-0.1l-2.4-0.1
			c0,0-0.1,0-0.1,0c0,0,0,0.1,0,0.1v3.3C-280.8,399.5-280.7,399.5-280.7,399.5z"/>
		<path class="st1" d="M-285.8,398.5l1.2,0.2c0,0,0,0,0,0c0,0,0.1,0,0.1,0c0,0,0-0.1,0-0.1V396c0-0.1,0-0.1-0.1-0.1l-1.2,0
			c0,0-0.1,0-0.1,0c0,0,0,0.1,0,0.1v2.4C-285.9,398.5-285.9,398.5-285.8,398.5z"/>
		<path class="st1" d="M-267.8,390.2c0,0-8-3.7-8-3.7c0,0-0.1,0-0.1,0c0,0-0.1,0-0.1,0c0,0-11.2,4-11.2,4c-0.1,0-0.2,0.2-0.2,0.3
			l0,1.5c0,0.1,0,0.2,0.1,0.3c0.1,0,0.1,0.1,0.2,0.1c0,0,0.1,0,0.1,0l0.2-0.1l0,8c0,0.1,0.1,0.3,0.2,0.3l10.6,3.9c0,0,0.1,0,0.1,0
			c0.1,0,0.1,0,0.1,0l7.5-3.5c0.1-0.1,0.2-0.2,0.2-0.3v-8.6l0.1,0c0,0,0.1,0,0.1,0c0.1,0,0.1,0,0.2-0.1c0.1-0.1,0.1-0.2,0.1-0.3
			v-1.6C-267.6,390.4-267.7,390.3-267.8,390.2z M-276.3,403.9l-5.5-2v-5.8c0-0.1,0-0.1-0.1-0.1l-1.7-0.1c0,0-0.1,0-0.1,0
			c0,0,0,0.1,0,0.1v5.2l-2.5-0.9l0-7.9l9.9-2.5V403.9z M-272.1,399.4c0,0.1,0,0.1-0.1,0.1l-1.8,0.5c0,0,0,0,0,0c0,0,0,0-0.1,0
			c0,0,0-0.1,0-0.1v-3.6c0-0.1,0-0.1,0.1-0.1l1.8-0.1c0,0,0.1,0,0.1,0c0,0,0,0.1,0,0.1L-272.1,399.4L-272.1,399.4z M-272.1,395.1
			C-272.1,395.1-272.1,395.1-272.1,395.1c-0.1,0.1-0.1,0.1-0.1,0.1c0,0,0,0,0,0l-1.8-0.1c-0.1,0-0.1-0.1-0.1-0.1v-3.6
			c0,0,0-0.1,0-0.1c0,0,0.1,0,0.1,0l1.8,0.4c0.1,0,0.1,0.1,0.1,0.1L-272.1,395.1L-272.1,395.1L-272.1,395.1z M-269,398.6
			c0,0.1,0,0.1-0.1,0.1l-1.1,0.3c0,0,0,0,0,0c0,0,0,0-0.1,0c0,0,0-0.1,0-0.1v-2.9c0-0.1,0-0.1,0.1-0.1l1.1,0c0,0,0.1,0,0.1,0
			c0,0,0,0.1,0,0.1L-269,398.6L-269,398.6z M-269,395.1C-269,395.2-269.1,395.2-269,395.1c-0.1,0.1-0.1,0.1-0.1,0.1c0,0,0,0,0,0
			l-1.1,0c-0.1,0-0.1-0.1-0.1-0.1v-2.8c0,0,0-0.1,0-0.1c0,0,0.1,0,0.1,0l1.1,0.3c0.1,0,0.1,0.1,0.1,0.1L-269,395.1L-269,395.1z"/>
	</g>
</g>
</svg>
