<?xml version="1.0" encoding="utf-8"?>
<!-- Generator: Adobe Illustrator 19.0.0, SVG Export Plug-In . SVG Version: 6.00 Build 0)  -->
<svg version="1.1" id="Capa_1" xmlns="http://www.w3.org/2000/svg" xmlns:xlink="http://www.w3.org/1999/xlink" x="0px" y="0px"
	 viewBox="-291 383.3 27.8 27.8" style="enable-background:new -291 383.3 27.8 27.8;" xml:space="preserve">
<style type="text/css">
	.st0{fill:#FF891F;stroke:#E06000;stroke-width:0.75;stroke-miterlimit:10;}
</style>
<path class="st0" d="M-277.1,410c-1.2-1.1-2.3-2.2-3.5-3.2c-2,0-4,0.1-6,0.1c-0.2,0-1.3,0.1-2.2-1c-0.7-0.8-0.8-1.8-0.8-2.1
	c0-5.5,0-11,0-16.4c0-0.3,0.2-1.3,0.9-2.1c0.8-0.9,1.8-0.9,2-0.9c6.4,0,12.9,0.1,19.3,0.1c0.2,0,1.1,0.1,1.8,0.9
	c0.7,0.8,0.9,1.8,0.9,2.1c0,5.4,0,10.9,0,16.3c0,0.2-0.1,1.3-0.8,2.2c-0.8,0.9-1.7,1-1.9,0.9c-2,0-4.1,0-6.1,0.1
	C-274.8,407.9-276,409-277.1,410z"/>
<path d="M-277.1,407.1"/>
<g>
	<path d="M-269.5,401c0,0.1,0,0.3,0,0.4h-0.7c-0.8-2.5-0.9-4.7-0.9-6.3c0-0.6,0-1.2,0.1-1.7h1.9v-0.8h-1.8c0.1-0.7,0.2-1.2,0.2-1.4
		c-0.6,0.1-1.3,0.2-1.9,0.3c0,0.3-0.1,0.6-0.1,1h-8.9c0-0.4-0.1-0.7-0.1-1c-0.6-0.1-1.3-0.2-1.9-0.3c0,0.2,0.1,0.6,0.2,1.4h-1.8v0.8
		h1.9c0,0.5,0.1,1.1,0.1,1.7c0,1.6-0.2,3.8-0.9,6.3h-0.7c0-0.1,0-0.3,0-0.4l-0.4,0c0,1-0.7,2.3-0.9,2.7h0.5c0.2-0.4,0.6-1.2,0.7-2
		h0.6c-0.2,0.6-0.5,1.3-0.8,2h2c0.3-0.7,0.5-1.3,0.7-2h0.6c-0.2,0.8-0.6,1.7-0.8,2h0.5c0.3-0.6,0.8-1.7,0.8-2.7l-0.4,0
		c0,0.1,0,0.3,0,0.4h-0.6c0.7-2.5,0.9-4.7,0.9-6.3c0-0.6,0-1.1-0.1-1.6h1.7c-0.3,0.1-0.5,0.3-0.5,0.3l-0.1,0.1l0.1,0.1
		c0,0,0.2,0.3,0.5,0.3c-0.3,0.1-0.5,0.3-0.5,0.3l-0.1,0.1l0.1,0.1c0,0,0.2,0.3,0.5,0.3c-0.3,0.1-0.5,0.3-0.5,0.3l-0.1,0.1l0.1,0.1
		c0,0,0.2,0.3,0.5,0.3c-0.3,0.1-0.5,0.3-0.5,0.3l-0.1,0.1l0.1,0.1c0,0,0.3,0.3,0.6,0.3c0.4,0,0.6-0.3,0.6-0.3l0.1-0.1l-0.1-0.1
		c0,0-0.2-0.3-0.5-0.3c0.3-0.1,0.5-0.3,0.5-0.3l0.1-0.1l-0.1-0.1c0,0-0.2-0.3-0.5-0.3c0.3-0.1,0.5-0.3,0.5-0.3l0.1-0.1l-0.1-0.1
		c0,0-0.2-0.3-0.5-0.3c0.3-0.1,0.5-0.3,0.5-0.3l0.1-0.1l-0.1-0.1c0,0-0.2-0.2-0.5-0.3h2.2c-0.3,0.1-0.5,0.3-0.5,0.3l-0.1,0.1
		l0.1,0.1c0,0,0.2,0.3,0.5,0.3c-0.3,0.1-0.5,0.3-0.5,0.3l-0.1,0.1l0.1,0.1c0,0,0.2,0.3,0.5,0.3c-0.3,0.1-0.5,0.3-0.5,0.3l-0.1,0.1
		l0.1,0.1c0,0,0.2,0.3,0.5,0.3c-0.3,0.1-0.5,0.3-0.5,0.3l-0.1,0.1l0.1,0.1c0,0,0.3,0.3,0.6,0.3c0.4,0,0.6-0.3,0.6-0.3l0.1-0.1
		l-0.1-0.1c0,0-0.2-0.3-0.5-0.3c0.3-0.1,0.5-0.3,0.5-0.3l0.1-0.1l-0.1-0.1c0,0-0.2-0.3-0.5-0.3c0.3-0.1,0.5-0.3,0.5-0.3l0.1-0.1
		l-0.1-0.1c0,0-0.2-0.3-0.5-0.3c0.3-0.1,0.5-0.3,0.5-0.3l0.1-0.1l-0.1-0.1c0,0-0.2-0.2-0.5-0.3h2.2c-0.3,0.1-0.5,0.3-0.5,0.3
		l-0.1,0.1l0.1,0.1c0,0,0.2,0.3,0.5,0.3c-0.3,0.1-0.5,0.3-0.5,0.3l-0.1,0.1l0.1,0.1c0,0,0.2,0.3,0.5,0.3c-0.3,0.1-0.5,0.3-0.5,0.3
		l-0.1,0.1l0.1,0.1c0,0,0.2,0.3,0.5,0.3c-0.3,0.1-0.5,0.3-0.5,0.3l-0.1,0.1l0.1,0.1c0,0,0.3,0.3,0.6,0.3c0.4,0,0.6-0.3,0.6-0.3
		l0.1-0.1l-0.1-0.1c0,0-0.2-0.3-0.5-0.3c0.3-0.1,0.5-0.3,0.5-0.3l0.1-0.1l-0.1-0.1c0,0-0.2-0.3-0.5-0.3c0.3-0.1,0.5-0.3,0.5-0.3
		l0.1-0.1l-0.1-0.1c0,0-0.2-0.3-0.5-0.3c0.3-0.1,0.5-0.3,0.5-0.3l0.1-0.1l-0.1-0.1c0,0-0.2-0.2-0.5-0.3h1.7c0,0.5-0.1,1-0.1,1.6
		c0,1.6,0.2,3.9,0.9,6.3h-0.6c0-0.1,0-0.3,0-0.4l-0.4,0c0,1,0.6,2.2,0.8,2.7h0.5c-0.2-0.3-0.6-1.1-0.8-2h0.6c0.2,0.6,0.4,1.3,0.7,2
		h2c-0.3-0.7-0.6-1.3-0.8-2h0.6c0.2,0.8,0.5,1.6,0.7,2h0.5c-0.2-0.4-0.9-1.7-0.9-2.7L-269.5,401z"/>
	<path d="M-268.1,390.2c-0.3-0.9-0.6-1.9-0.9-2.8c-2.7,0.8-5.5,1.2-8.3,1.2c-2.8,0-5.5-0.4-8.3-1.2c-0.3,0.9-0.6,1.9-0.9,2.8
		c3,0.9,6.1,1.3,9.1,1.3C-274.1,391.5-271.1,391.1-268.1,390.2z"/>
</g>
</svg>
