<?xml version="1.0" encoding="utf-8"?>
<!-- Generator: Adobe Illustrator 19.0.0, SVG Export Plug-In . SVG Version: 6.00 Build 0)  -->
<svg version="1.1" id="Capa_1" xmlns="http://www.w3.org/2000/svg" xmlns:xlink="http://www.w3.org/1999/xlink" x="0px" y="0px"
	 viewBox="-291 383.3 27.8 27.8" style="enable-background:new -291 383.3 27.8 27.8;" xml:space="preserve">
<style type="text/css">
	.st0{fill:#C60000;stroke:#930000;stroke-width:0.75;stroke-miterlimit:10;}
	.st1{fill:#FFFFFF;}
</style>
<path class="st0" d="M-277.1,410c-1.2-1.1-2.3-2.2-3.5-3.2c-2,0-4,0.1-6,0.1c-0.2,0-1.3,0.1-2.2-1c-0.7-0.8-0.8-1.8-0.8-2.1
	c0-5.5,0-11,0-16.4c0-0.3,0.2-1.3,0.9-2.1c0.8-0.9,1.8-0.9,2-0.9c6.4,0,12.9,0.1,19.3,0.1c0.2,0,1.1,0.1,1.8,0.9
	c0.7,0.8,0.9,1.8,0.9,2.1c0,5.4,0,10.9,0,16.3c0,0.2-0.1,1.3-0.8,2.2c-0.8,0.9-1.7,1-1.9,0.9c-2,0-4.1,0-6.1,0.1
	C-274.8,407.9-276,409-277.1,410z"/>
<path d="M-277.1,407.1"/>
<g>
	<path class="st1" d="M-268.4,390h-5.6v-1.3c0-0.8-0.7-1.5-1.5-1.5h-3.3c-0.8,0-1.5,0.7-1.5,1.5v1.3h-5.6c-0.5,0-0.9,0.4-0.9,0.9
		v11.9c0,0.5,0.4,0.9,0.9,0.9h17.6c0.5,0,0.9-0.4,0.9-0.9v-11.9C-267.4,390.4-267.9,390-268.4,390z M-278.8,388.7h3.2v1.3h-3.2
		L-278.8,388.7L-278.8,388.7z M-277.2,402.4c-3.1,0-5.6-2.5-5.6-5.6s2.5-5.6,5.6-5.6s5.6,2.5,5.6,5.6S-274.1,402.4-277.2,402.4z"/>
	<path class="st1" d="M-274.4,395.5h-1.5V394c0-0.4-0.3-0.7-0.7-0.7h-1.2c-0.4,0-0.7,0.3-0.7,0.7v1.5h-1.5c-0.4,0-0.7,0.3-0.7,0.7
		v1.2c0,0.4,0.3,0.7,0.7,0.7h1.5v1.5c0,0.4,0.3,0.7,0.7,0.7h1.2c0.4,0,0.7-0.3,0.7-0.7v-1.5h1.5c0.4,0,0.7-0.3,0.7-0.7v-1.2
		C-273.6,395.8-274,395.5-274.4,395.5z"/>
</g>
</svg>
