<?xml version="1.0" encoding="utf-8"?>
<!-- Generator: Adobe Illustrator 19.0.0, SVG Export Plug-In . SVG Version: 6.00 Build 0)  -->
<svg version="1.1" id="Capa_1" xmlns="http://www.w3.org/2000/svg" xmlns:xlink="http://www.w3.org/1999/xlink" x="0px" y="0px"
	 viewBox="-291 383.3 27.8 27.8" style="enable-background:new -291 383.3 27.8 27.8;" xml:space="preserve">
<style type="text/css">
	.st0{fill:#49AA31;stroke:#256819;stroke-width:0.75;stroke-miterlimit:10;}
	.st1{fill:#FFFFFF;}
</style>
<path class="st0" d="M-277.1,410c-1.2-1.1-2.3-2.2-3.5-3.2c-2,0-4,0.1-6,0.1c-0.2,0-1.3,0.1-2.2-1c-0.7-0.8-0.8-1.8-0.8-2.1
	c0-5.5,0-11,0-16.4c0-0.3,0.2-1.3,0.9-2.1c0.8-0.9,1.8-0.9,2-0.9c6.4,0,12.9,0.1,19.3,0.1c0.2,0,1.1,0.1,1.8,0.9
	c0.7,0.8,0.9,1.8,0.9,2.1c0,5.4,0,10.9,0,16.3c0,0.2-0.1,1.3-0.8,2.2c-0.8,0.9-1.7,1-1.9,0.9c-2,0-4.1,0-6.1,0.1
	C-274.8,407.9-276,409-277.1,410z"/>
<path d="M-277.1,407.1"/>
<g>
	<g>
		<path class="st1" d="M-274.8,396.1c0-1.2-0.9-2.1-2-2.3v4.7C-275.7,398.2-274.8,397.3-274.8,396.1z"/>
		<rect x="-286.9" y="393.7" class="st1" width="2.7" height="4.7"/>
		<path class="st1" d="M-279.5,396.1c0,1.2,0.9,2.1,2,2.3v-4.7C-278.7,393.9-279.5,394.9-279.5,396.1z"/>
		<path class="st1" d="M-268.8,389.7h-8v3.3c1.5,0.1,2.7,1.5,2.7,3c0,1.5-1.2,2.8-2.7,3v3.3h8c0.7,0,1.3-0.6,1.3-1.3v-2h-3.3v-6h3.3
			v-2C-267.5,390.3-268.1,389.7-268.8,389.7z"/>
		<rect x="-270.2" y="393.7" class="st1" width="2.7" height="4.7"/>
		<path class="st1" d="M-286.9,391v2h3.3v6h-3.3v2c0,0.7,0.6,1.3,1.3,1.3h8v-3.3c-1.5-0.1-2.7-1.5-2.7-3c0-1.5,1.2-2.8,2.7-3v-3.3
			h-8C-286.3,389.7-286.9,390.3-286.9,391z"/>
	</g>
</g>
</svg>
