<?xml version="1.0" encoding="utf-8"?>
<!-- Generator: Adobe Illustrator 19.0.0, SVG Export Plug-In . SVG Version: 6.00 Build 0)  -->
<svg version="1.1" id="Capa_1" xmlns="http://www.w3.org/2000/svg" xmlns:xlink="http://www.w3.org/1999/xlink" x="0px" y="0px"
	 viewBox="-291 383.3 27.8 27.8" style="enable-background:new -291 383.3 27.8 27.8;" xml:space="preserve">
<style type="text/css">
	.st0{fill:#FF891F;stroke:#E06000;stroke-width:0.75;stroke-miterlimit:10;}
	.st1{fill:#020400;}
</style>
<path class="st0" d="M-277.1,410c-1.2-1.1-2.3-2.2-3.5-3.2c-2,0-4,0.1-6,0.1c-0.2,0-1.3,0.1-2.2-1c-0.7-0.8-0.8-1.8-0.8-2.1
	c0-5.5,0-11,0-16.4c0-0.3,0.2-1.3,0.9-2.1c0.8-0.9,1.8-0.9,2-0.9c6.4,0,12.9,0.1,19.3,0.1c0.2,0,1.1,0.1,1.8,0.9
	c0.7,0.8,0.9,1.8,0.9,2.1c0,5.4,0,10.9,0,16.3c0,0.2-0.1,1.3-0.8,2.2c-0.8,0.9-1.7,1-1.9,0.9c-2,0-4.1,0-6.1,0.1
	C-274.8,407.9-276,409-277.1,410z"/>
<path d="M-277.1,407.1"/>
<g id="XMLID_14_">
	<path id="XMLID_150_" class="st1" d="M-286.1,395.2c0,0.1,0,0.1,0.1,0.2c0.1,0.7,0.3,1.4,0.6,2c0.4,0.9,0.9,1.7,1.5,2.4
		c0.7,0.8,1.5,1.3,2.5,1.7c0.1,0,0.2,0.1,0.3,0.1c0.1,0,0.1,0,0.1,0c0-0.2,0-0.4,0-0.6c0-0.1,0-0.1-0.1-0.1c-0.1,0-0.1-0.1-0.2-0.1
		c-0.1,0-0.1-0.1-0.1-0.1c0-0.2,0-0.3,0-0.5c0-0.1,0-0.1,0.1-0.1c0.1,0,0.2-0.1,0.4-0.1c0.1,0,0.1,0,0.1-0.1c0-0.5,0-1,0-1.5
		c0-0.5,0-0.9,0-1.4c0-0.4,0-0.9,0-1.3c0-0.1,0-0.2,0-0.2c0-0.3-0.1-0.5-0.1-0.8c0-0.1,0-0.1,0.1-0.1c0.1,0,0.1,0,0.1-0.1
		c0-0.1-0.1-0.2-0.1-0.4c0-0.1,0-0.2,0-0.3c0-0.1,0-0.1,0.1-0.1c0.1,0,0.1,0,0.1-0.1c0-0.3,0-0.6,0-0.9c0-0.3,0.1-0.5,0.4-0.7
		c0,0,0,0,0.1-0.1c0,0,0-0.1,0-0.1c-0.1-0.1-0.1-0.1,0-0.2c0-0.1,0.1-0.1,0.1-0.2c0,0,0,0,0.1,0c0,0.1,0.1,0.2,0.1,0.2
		c0,0,0,0.1,0,0.1c-0.1,0.1-0.1,0.1,0,0.1c0.2,0.1,0.3,0.2,0.4,0.4c0,0.1,0,0.2,0,0.3c0,0.3,0,0.6,0,0.9c0,0.1,0,0.1,0.1,0.1
		c0.1,0,0.1,0,0.1,0.1c0,0.1,0,0.3-0.1,0.4c0,0.1-0.1,0.2-0.1,0.3c0,0,0,0.1,0,0.1c0,0,0,0,0,0c0.2,0,0.2,0,0.1,0.2
		c0,0.1-0.1,0.2-0.1,0.3c0,0.1,0,0.3,0,0.4c0,0,0,0.1,0,0.1c0,0.6,0,1.1,0,1.7c0,0.4,0,0.9,0,1.3c0,0.4,0,0.8,0,1.2
		c0,0.1,0,0.1,0.1,0.1c0.1,0,0.2,0,0.3,0c0.1,0,0.1,0,0.1-0.1c0-0.1,0-0.3-0.1-0.4c-0.1-0.3-0.1-0.6,0-1c0.1-0.2,0.2-0.3,0.4-0.4
		c0.4-0.3,0.7-0.7,1.1-0.9c0.2-0.1,0.4-0.3,0.6-0.3c0.1,0,0.1-0.2,0-0.2c0,0,0,0,0-0.1c0-0.1-0.1-0.1,0-0.2c0.2-0.1,0.2-0.3,0.2-0.5
		c0,0,0-0.1,0-0.1c0,0.1,0,0.1,0,0.1c0,0.1,0,0.2,0,0.2c0,0.1,0,0.2,0.1,0.2c0,0,0,0.1,0.1,0.1c0,0.1,0,0.1,0,0.2
		c0,0-0.1,0.1-0.1,0.1c0,0.1,0,0.2,0.1,0.2c0.3,0.1,0.6,0.3,0.9,0.6c0.3,0.2,0.6,0.5,0.9,0.8c0.3,0.3,0.4,0.7,0.3,1.1
		c0,0.1,0,0.2-0.1,0.2c-0.1,0.1-0.1,0.2-0.1,0.4c0,0.1,0,0.1,0.1,0.1c0.4,0,0.9,0,1.3,0c0.1,0,0.1,0,0.1-0.1c0.3-0.3,0.6-0.6,0.8-1
		c0.4-0.5,0.7-1.1,1-1.8c0.3-0.7,0.5-1.5,0.5-2.3c0-0.7-0.1-1.5-0.3-2.2c-0.2-0.5-0.4-1.1-0.7-1.6c-0.4-0.7-0.9-1.4-1.5-2
		c-0.8-0.7-1.7-1.3-2.7-1.6c-0.8-0.3-1.7-0.5-2.6-0.6c-0.1,0-0.2,0-0.3,0c0,0,0,0,0,0c0.9-0.2,1.9-0.2,2.8-0.1
		c2.2,0.3,4.1,1.2,5.6,2.9c3.1,3.4,3,8.5,0.2,11.8c-3,3.5-7.9,4.1-11.5,1.8c-1.9-1.2-3.2-2.8-3.9-4.9
		C-286.1,397.4-286.2,396.3-286.1,395.2z"/>
	<path id="XMLID_149_" class="st1" d="M-284.8,386.7c0.2,0.1,0.5,0.2,0.7,0.3c0.4,0.1,0.7,0.3,1.1,0.4c0.1,0,0.1,0,0.1,0
		c0.4-0.5,0.8-1,1.2-1.5c0,0,0-0.1,0.1,0c0,0,0,0,0,0.1c0,0.6,0,1.3-0.1,1.9c0,0.1,0,0.1,0.1,0.1c0.6,0.2,1.2,0.4,1.8,0.7
		c0,0,0.1,0,0.1,0c0,0,0,0-0.1,0c-0.6,0.2-1.2,0.3-1.8,0.5c-0.1,0-0.1,0.1-0.1,0.1c0,0.6,0,1.1-0.1,1.7c0,0.1,0,0.2,0,0.2
		c0,0,0,0,0,0c0,0,0,0,0,0c-0.1-0.2-0.3-0.4-0.4-0.6c-0.2-0.3-0.4-0.7-0.7-1c0-0.1-0.1,0-0.1,0c-0.5,0.1-1,0.3-1.5,0.4
		c-0.1,0-0.2,0.1-0.3,0.1c0,0,0,0-0.1,0c0,0,0,0,0-0.1c0.2-0.3,0.5-0.6,0.7-1c0.1-0.2,0.3-0.4,0.4-0.6c0,0,0-0.1,0-0.1
		C-284.1,387.8-284.4,387.3-284.8,386.7C-284.8,386.8-284.8,386.7-284.8,386.7z"/>
</g>
</svg>
