<?xml version="1.0" encoding="utf-8"?>
<!-- Generator: Adobe Illustrator 19.0.0, SVG Export Plug-In . SVG Version: 6.00 Build 0)  -->
<svg version="1.1" id="Capa_1" xmlns="http://www.w3.org/2000/svg" xmlns:xlink="http://www.w3.org/1999/xlink" x="0px" y="0px"
	 viewBox="-291 383.3 27.8 27.8" style="enable-background:new -291 383.3 27.8 27.8;" xml:space="preserve">
<style type="text/css">
	.st0{fill:#811993;stroke:#5D0472;stroke-width:0.75;stroke-miterlimit:10;}
	.st1{fill:#FFFFFF;}
</style>
<path class="st0" d="M-277.1,410c-1.2-1.1-2.3-2.2-3.5-3.2c-2,0-4,0.1-6,0.1c-0.2,0-1.3,0.1-2.2-1c-0.7-0.8-0.8-1.8-0.8-2.1
	c0-5.5,0-11,0-16.4c0-0.3,0.2-1.3,0.9-2.1c0.8-0.9,1.8-0.9,2-0.9c6.4,0,12.9,0.1,19.3,0.1c0.2,0,1.1,0.1,1.8,0.9
	c0.7,0.8,0.9,1.8,0.9,2.1c0,5.4,0,10.9,0,16.3c0,0.2-0.1,1.3-0.8,2.2c-0.8,0.9-1.7,1-1.9,0.9c-2,0-4.1,0-6.1,0.1
	C-274.8,407.9-276,409-277.1,410z"/>
<path d="M-277.1,407.1"/>
<path class="st1" d="M-268.8,391.8v-3.9c0-0.3-0.3-0.6-0.6-0.6h-15.4c-0.3,0-0.6,0.3-0.6,0.6v3.9c0,1.2,0.8,2.2,1.9,2.4v3.7h-1.3
	c-0.3,0-0.6,0.3-0.6,0.6v2.9c0,0.3,0.3,0.6,0.6,0.6h0.4c0,0.1,0,0.2,0,0.4c0,0.9,0.7,1.5,1.5,1.5c0.9,0,1.5-0.7,1.5-1.5
	c0-0.1,0-0.3,0-0.4h8.6c0,0.1,0,0.2,0,0.4c0,0.9,0.7,1.5,1.5,1.5c0.9,0,1.5-0.7,1.5-1.5c0-0.1,0-0.3,0-0.4h0.4
	c0.3,0,0.6-0.3,0.6-0.6v-2.9c0-0.3-0.3-0.6-0.6-0.6h-1.3v-3.7C-269.6,393.9-268.8,393-268.8,391.8z M-282.3,397.9v-3.7
	c0.5-0.1,1-0.4,1.3-0.8c0.5,0.6,1.2,0.9,1.9,0.9c0.8,0,1.5-0.4,1.9-0.9c0.5,0.6,1.2,0.9,1.9,0.9c0.8,0,1.5-0.4,1.9-0.9
	c0.3,0.4,0.8,0.7,1.3,0.8v3.7H-282.3z"/>
</svg>
