<?xml version="1.0" encoding="utf-8"?>
<!-- Generator: Adobe Illustrator 19.0.0, SVG Export Plug-In . SVG Version: 6.00 Build 0)  -->
<svg version="1.1" id="Capa_1" xmlns="http://www.w3.org/2000/svg" xmlns:xlink="http://www.w3.org/1999/xlink" x="0px" y="0px"
	 viewBox="-291 383.2 27.8 27.8" style="enable-background:new -291 383.2 27.8 27.8;" xml:space="preserve">
<style type="text/css">
	.st0{fill:#FF48E9;stroke:#CE005E;stroke-width:0.75;stroke-miterlimit:10;}
	.st1{fill:#FFFFFF;}
</style>
<path class="st0" d="M-277,409.9c-1.2-1.1-2.3-2.2-3.5-3.2c-2,0-4,0.1-6,0.1c-0.2,0-1.3,0.1-2.2-1c-0.7-0.8-0.8-1.8-0.8-2.1
	c0-5.5,0-11,0-16.4c0-0.3,0.2-1.3,0.9-2.1c0.8-0.9,1.8-0.9,2-0.9c6.4,0,12.9,0.1,19.3,0.1c0.2,0,1.1,0.1,1.8,0.9
	c0.7,0.8,0.9,1.8,0.9,2.1c0,5.4,0,10.9,0,16.3c0,0.2-0.1,1.3-0.8,2.2c-0.8,0.9-1.7,1-1.9,0.9c-2,0-4.1,0-6.1,0.1
	C-274.7,407.8-275.9,408.9-277,409.9z"/>
<path d="M-277,407"/>
<g>
	<g>
		<path class="st1" d="M-276.3,386.4c0-0.4-0.4-0.7-0.8-0.7c-0.4,0-0.8,0.3-0.8,0.7v2.6h1.6L-276.3,386.4L-276.3,386.4z"/>
		<path class="st1" d="M-278.3,389.6h-1.9c-0.5,0-1.1,0.2-1.1,0.7v3.4l3.8-1.7l0.3-0.1l0.3,0.1l3.5,1.5v-3.2c0-0.5-0.2-0.7-0.7-0.7
			h-1.9h-0.3h-1.6L-278.3,389.6L-278.3,389.6z"/>
		<polygon class="st1" points="-280,399.6 -274.2,399.6 -270.6,395.6 -272.9,394.5 -273.2,394.4 -273.5,394.3 -277.2,392.6 
			-281.1,394.4 -281.5,394.6 -281.7,394.7 -283.6,395.6 		"/>
		<path class="st1" d="M-285.2,401.2c0.3,0,0.7,0.2,1,0.5c0.4,0.4,0.8,0.8,1.6,0.8c0.9,0,1.3-0.5,1.6-0.8c0.3-0.3,0.5-0.5,1-0.5
			s0.7,0.2,1,0.5c0.4,0.4,0.8,0.8,1.6,0.8c0.9,0,1.3-0.5,1.6-0.8c0.3-0.3,0.5-0.5,1-0.5c0.5,0,0.7,0.2,1,0.5
			c0.4,0.4,0.8,0.8,1.6,0.8c0.9,0,1.3-0.5,1.6-0.8c0.3-0.3,0.7-0.5,1-0.5v-1c-1,0-1.3,0.5-1.6,0.8c-0.3,0.3-0.5,0.5-1,0.5
			c-0.5,0-0.7-0.2-1-0.5s-0.6-0.6-1-0.7c-0.2-0.1-0.4-0.1-0.7-0.1c-0.3,0-0.6,0.1-0.8,0.2c-0.4,0.2-0.7,0.4-0.9,0.7
			c-0.3,0.3-0.5,0.5-1,0.5c-0.5,0-0.7-0.2-1-0.5c-0.2-0.2-0.5-0.5-0.9-0.7c-0.2-0.1-0.5-0.2-0.8-0.2c-0.2,0-0.4,0-0.5,0.1
			c-0.6,0.1-0.9,0.5-1.2,0.8c-0.3,0.3-0.5,0.5-1,0.5c-0.5,0-0.7-0.2-1-0.5c-0.4-0.4-0.7-0.8-1.6-0.8L-285.2,401.2L-285.2,401.2z"/>
		<path class="st1" d="M-285.2,403.4c0.3,0,0.7,0.2,1,0.5c0.4,0.4,0.8,0.8,1.6,0.8c0.9,0,1.3-0.5,1.6-0.8c0.3-0.3,0.5-0.5,1-0.5
			s0.7,0.2,1,0.5c0.4,0.4,0.8,0.8,1.6,0.8c0.9,0,1.3-0.5,1.6-0.8c0.3-0.3,0.5-0.5,1-0.5c0.5,0,0.7,0.2,1,0.5
			c0.4,0.4,0.8,0.8,1.6,0.8c0.9,0,1.3-0.5,1.6-0.8c0.3-0.3,0.7-0.5,1-0.5v-1c-1,0-1.3,0.5-1.6,0.8c-0.3,0.3-0.5,0.5-1,0.5
			c-0.5,0-0.7-0.2-1-0.5c-0.4-0.4-0.8-0.8-1.6-0.8c-0.9,0-1.3,0.5-1.6,0.8c-0.3,0.3-0.5,0.5-1,0.5c-0.5,0-0.7-0.2-1-0.5
			c-0.4-0.4-0.8-0.8-1.6-0.8c-0.9,0-1.3,0.5-1.6,0.8s-0.5,0.5-1,0.5c-0.5,0-0.7-0.2-1-0.5c-0.4-0.4-0.7-0.8-1.6-0.8V403.4
			L-285.2,403.4z"/>
	</g>
</g>
</svg>
