<?xml version="1.0" encoding="utf-8"?>
<!-- Generator: Adobe Illustrator 19.0.0, SVG Export Plug-In . SVG Version: 6.00 Build 0)  -->
<svg version="1.1" id="Capa_1" xmlns="http://www.w3.org/2000/svg" xmlns:xlink="http://www.w3.org/1999/xlink" x="0px" y="0px"
	 viewBox="-291 383.3 27.8 27.8" style="enable-background:new -291 383.3 27.8 27.8;" xml:space="preserve">
<style type="text/css">
	.st0{fill:#811993;stroke:#5D0472;stroke-width:0.75;stroke-miterlimit:10;}
	.st1{fill:#FFFFFF;}
</style>
<path class="st0" d="M-277.1,410c-1.2-1.1-2.3-2.2-3.5-3.2c-2,0-4,0.1-6,0.1c-0.2,0-1.3,0.1-2.2-1c-0.7-0.8-0.8-1.8-0.8-2.1
	c0-5.5,0-11,0-16.4c0-0.3,0.2-1.3,0.9-2.1c0.8-0.9,1.8-0.9,2-0.9c6.4,0,12.9,0.1,19.3,0.1c0.2,0,1.1,0.1,1.8,0.9
	c0.7,0.8,0.9,1.8,0.9,2.1c0,5.4,0,10.9,0,16.3c0,0.2-0.1,1.3-0.8,2.2c-0.8,0.9-1.7,1-1.9,0.9c-2,0-4.1,0-6.1,0.1
	C-274.8,407.9-276,409-277.1,410z"/>
<path d="M-277.1,407.1"/>
<g>
	<path class="st1" d="M-273.5,398.1c0,0.6-0.5,1.1-1.1,1.1c-0.6,0-1.1-0.5-1.1-1.1c0-0.6,0.5-1.1,1.1-1.1
		C-273.9,397-273.5,397.5-273.5,398.1z M-279.6,397c-0.6,0-1.1,0.5-1.1,1.1c0,0.6,0.5,1.1,1.1,1.1s1.1-0.5,1.1-1.1
		C-278.6,397.5-279.1,397-279.6,397z M-267.7,397.7c0,1.4-1.6,3.4-4,4.2c-0.1,0-0.4,0.1-0.7,0.1c-1.2,2-3.6,2.9-4.6,2.9
		c-1,0-3.3-0.9-4.6-2.8c-0.2,0-0.5-0.1-0.8-0.2c-2.4-0.8-4-2.8-4-4.2c0-2.5,2.9-3.3,2.9-3.3c0-3.2,2.1-5.9,5-6.6v-0.3
		c0-0.4,0.3-0.7,0.7-0.7h1.5c0.4,0,0.7,0.3,0.7,0.7v0.3c2.9,0.7,5,3.4,5,6.6C-270.6,394.4-267.7,395.3-267.7,397.7z M-278.5,391.1
		c0,0.5,0.8,1.1,1.2,1.3c0.1,0,0.2,0,0.2,0c0.1,0,0.2,0,0.2,0c0.4-0.2,1.2-0.8,1.2-1.3c0-0.7,0-1.5,0-1.5h-2.9
		C-278.5,389.7-278.5,390.4-278.5,391.1z M-273.1,400.2c0.1-0.3,0.3-0.5,0.6-0.5c0.4,0,1.3-0.8,1.3-1.4c0-0.7-0.4-1.2-0.7-1.2
		c-0.3,0-0.6-0.3-0.7-0.6c0-0.3-0.1-0.6-0.1-0.8c-1.2-0.6-2.8-0.9-4.5-0.9c-1.8,0-3.3,0.4-4.5,0.9c0,0.3-0.1,0.5-0.1,0.8
		c0,0.3-0.3,0.6-0.7,0.6c-0.3,0-0.7,0.5-0.7,1.2c0,0.7,1,1.4,1.3,1.4c0.3,0,0.6,0.2,0.6,0.5c0.5,2.4,3.2,3.4,4,3.4
		C-276.3,403.6-273.6,402.6-273.1,400.2z"/>
</g>
</svg>
