<?xml version="1.0" encoding="utf-8"?>
<!-- Generator: Adobe Illustrator 19.0.0, SVG Export Plug-In . SVG Version: 6.00 Build 0)  -->
<svg version="1.1" id="Capa_1" xmlns="http://www.w3.org/2000/svg" xmlns:xlink="http://www.w3.org/1999/xlink" x="0px" y="0px"
	 viewBox="-291 383.3 27.8 27.8" style="enable-background:new -291 383.3 27.8 27.8;" xml:space="preserve">
<style type="text/css">
	.st0{fill:#4FD0FC;stroke:#076663;stroke-width:0.75;stroke-miterlimit:10;}
</style>
<path class="st0" d="M-277.1,410c-1.2-1.1-2.3-2.2-3.5-3.2c-2,0-4,0.1-6,0.1c-0.2,0-1.3,0.1-2.2-1c-0.7-0.8-0.8-1.8-0.8-2.1
	c0-5.5,0-11,0-16.4c0-0.3,0.2-1.3,0.9-2.1c0.8-0.9,1.8-0.9,2-0.9c6.4,0,12.9,0.1,19.3,0.1c0.2,0,1.1,0.1,1.8,0.9
	c0.7,0.8,0.9,1.8,0.9,2.1c0,5.4,0,10.9,0,16.3c0,0.2-0.1,1.3-0.8,2.2c-0.8,0.9-1.7,1-1.9,0.9c-2,0-4.1,0-6.1,0.1
	C-274.8,407.9-276,409-277.1,410z"/>
<path d="M-277.1,407.1"/>
<g>
	<path d="M-267.6,397.2c-0.2-0.1-0.5,0-0.6,0.3c-0.1,0.2-0.1,0.3-0.2,0.4v-2.8v-2.8v-2.4c0-0.5-0.4-1-1-1h-12.8c-0.5,0-1,0.5-1,1
		v2.4v2.8v2.7c0-0.1-0.1-0.2-0.2-0.4c-0.1-0.2-0.3-0.4-0.5-0.3c-0.2,0.1-0.3,0.3-0.3,0.6c0.3,0.9,1,1.4,1.9,1.4
		c0.6,0,1.2-0.3,1.6-0.8c0.4,0.5,1,0.8,1.6,0.8c0.6,0,1.2-0.3,1.6-0.8c0.4,0.5,1,0.8,1.6,0.8c0.6,0,1.2-0.3,1.6-0.8
		c0.4,0.5,1,0.8,1.6,0.8c0.6,0,1.2-0.3,1.6-0.8c0.4,0.5,1,0.8,1.6,0.8c0.9,0,1.6-0.5,1.9-1.4C-267.2,397.5-267.4,397.3-267.6,397.2z
		 M-269.2,389.9v1.5c0,0-0.1,0-0.1,0h-0.8v-1.6h0.8C-269.3,389.7-269.2,389.8-269.2,389.9z M-280.4,391.3v-1.6h1.7v1.6H-280.4z
		 M-277.9,389.7h1.7v1.6h-1.7V389.7z M-275.3,389.7h1.7v1.6h-1.7V389.7z M-272.7,389.7h1.7v1.6h-1.7V389.7z M-282.1,389.7h0.8v1.6
		h-0.8c0,0-0.1,0-0.1,0v-1.5C-282.2,389.8-282.2,389.7-282.1,389.7z M-272.5,398.3c-0.5,0-1-0.4-1.2-1c-0.1-0.2-0.2-0.3-0.4-0.3
		c0,0,0,0,0,0c0,0,0,0,0,0c-0.2,0-0.4,0.1-0.4,0.3c-0.2,0.6-0.7,1-1.2,1c-0.5,0-1-0.4-1.2-1c-0.1-0.2-0.2-0.3-0.4-0.3c0,0,0,0,0,0
		c0,0,0,0,0,0c-0.2,0-0.4,0.1-0.4,0.3c-0.2,0.6-0.7,1-1.2,1c-0.5,0-1-0.4-1.2-1c0,0,0,0,0-0.1c0.4-2,2.1-3.3,4.4-3.3
		c2.3,0,4.1,1.4,4.5,3.4c0,0,0,0,0,0C-271.5,397.9-271.9,398.3-272.5,398.3z M-270.3,397.5c-0.1-1.3-0.7-2.3-1.7-3.2
		c-1-0.8-2.3-1.3-3.7-1.3c-1.4,0-2.7,0.5-3.7,1.3c-0.9,0.8-1.5,1.9-1.6,3.2c-0.2,0.4-0.7,0.7-1.1,0.7c0,0,0,0-0.1,0v-3.2v-2.8
		c0-0.1,0.1-0.1,0.1-0.1h12.8c0.1,0,0.1,0.1,0.1,0.1v2.8v3.2c0,0,0,0,0,0C-269.7,398.3-270.1,398-270.3,397.5z"/>
	<path d="M-270.6,400c-0.2-0.1-0.5,0-0.6,0.3c-0.2,0.6-0.5,0.8-1.1,0.8c-0.5,0-1-0.4-1.2-1c-0.1-0.2-0.2-0.3-0.4-0.3c0,0,0,0,0,0
		c0,0,0,0,0,0c-0.2,0-0.4,0.1-0.4,0.3c-0.2,0.6-0.7,1-1.2,1c-0.5,0-1-0.4-1.2-1c-0.1-0.2-0.2-0.3-0.4-0.3c0,0,0,0,0,0c0,0,0,0,0,0
		c-0.2,0-0.4,0.1-0.4,0.3c-0.2,0.6-0.7,1-1.2,1c-0.5,0-1-0.4-1.2-1c-0.1-0.2-0.2-0.3-0.4-0.3c0,0,0,0,0,0c0,0,0,0,0,0
		c-0.2,0-0.4,0.1-0.4,0.3c-0.2,0.6-0.7,1-1.2,1c-0.5,0-1-0.4-1.2-1c-0.1-0.2-0.2-0.3-0.4-0.3c0,0,0,0,0,0c0,0,0,0,0,0
		c-0.2,0-0.4,0.1-0.4,0.3c-0.2,0.6-0.7,1-1.2,1c-0.5,0-0.9-0.3-1.1-0.8c-0.1-0.2-0.3-0.4-0.6-0.3c-0.2,0.1-0.4,0.3-0.3,0.6
		c0.3,0.9,1,1.4,1.9,1.4c0.6,0,1.2-0.3,1.6-0.8c0.4,0.5,1,0.8,1.6,0.8s1.2-0.3,1.6-0.8c0.4,0.5,1,0.8,1.6,0.8c0.6,0,1.2-0.3,1.6-0.8
		c0.4,0.5,1,0.8,1.6,0.8c0.6,0,1.2-0.3,1.6-0.8c0.4,0.5,1,0.8,1.6,0.8c0.9,0,1.6-0.5,1.9-1.4C-270.2,400.3-270.3,400.1-270.6,400z"
		/>
</g>
</svg>
