<?xml version="1.0" encoding="utf-8"?>
<!-- Generator: Adobe Illustrator 19.0.0, SVG Export Plug-In . SVG Version: 6.00 Build 0)  -->
<svg version="1.1" id="Capa_1" xmlns="http://www.w3.org/2000/svg" xmlns:xlink="http://www.w3.org/1999/xlink" x="0px" y="0px"
	 viewBox="-291 383.3 27.8 27.8" style="enable-background:new -291 383.3 27.8 27.8;" xml:space="preserve">
<style type="text/css">
	.st0{fill:#811993;stroke:#5D0472;stroke-width:0.75;stroke-miterlimit:10;}
	.st1{fill:#FFFFFF;}
</style>
<path class="st0" d="M-277.1,410c-1.2-1.1-2.3-2.2-3.5-3.2c-2,0-4,0.1-6,0.1c-0.2,0-1.3,0.1-2.2-1c-0.7-0.8-0.8-1.8-0.8-2.1
	c0-5.5,0-11,0-16.4c0-0.3,0.2-1.3,0.9-2.1c0.8-0.9,1.8-0.9,2-0.9c6.4,0,12.9,0.1,19.3,0.1c0.2,0,1.1,0.1,1.8,0.9
	c0.7,0.8,0.9,1.8,0.9,2.1c0,5.4,0,10.9,0,16.3c0,0.2-0.1,1.3-0.8,2.2c-0.8,0.9-1.7,1-1.9,0.9c-2,0-4.1,0-6.1,0.1
	C-274.8,407.9-276,409-277.1,410z"/>
<path d="M-277.1,407.1"/>
<g>
	<g>
		<path class="st1" d="M-284.9,399.6c1.2,3.5,7.7,3.1,7.7,3.1s6.4,0.4,7.7-3.1c-1.8-1-4.6-1.6-7.7-1.6
			C-280.3,398-283.1,398.6-284.9,399.6z"/>
		<path class="st1" d="M-269.5,390.8c-1.4-0.1-3.7-0.2-5.5-1.8c-1.8-1.6-2.2-1.3-2.2-1.3s-0.4-0.3-2.2,1.3c-1.8,1.6-4.1,1.7-5.5,1.8
			c-1.4,0.1-1.3,0.7-1.7,2.3c-0.4,1.6-1.6,2-1.2,2.4c0.3,0.3,1.5,1.3,2.2,1.9c1.9-1.1,4.9-1.9,8.3-1.9c3.4,0,6.4,0.7,8.3,1.9
			c0.7-0.6,1.9-1.6,2.2-1.9c0.4-0.4-0.8-0.8-1.2-2.4C-268.2,391.6-268.1,391-269.5,390.8z M-275.4,394.7l-1.7-1.3l-1.7,1.3l0.7-2.1
			l-1.7-1.3h2.2l0.7-2.1l0.7,2.1h2.2l-1.7,1.3L-275.4,394.7z"/>
		<path class="st1" d="M-269.4,397.9c-1.8-1-4.6-1.6-7.8-1.6c-3.1,0-6,0.6-7.8,1.6v1c1.9-1,4.6-1.6,7.8-1.6c3.1,0,5.9,0.6,7.8,1.6
			V397.9z"/>
	</g>
</g>
</svg>
