<?xml version="1.0" encoding="utf-8"?>
<!-- Generator: Adobe Illustrator 19.0.0, SVG Export Plug-In . SVG Version: 6.00 Build 0)  -->
<svg version="1.1" id="Capa_1" xmlns="http://www.w3.org/2000/svg" xmlns:xlink="http://www.w3.org/1999/xlink" x="0px" y="0px"
	 viewBox="-291 383.3 27.8 27.8" style="enable-background:new -291 383.3 27.8 27.8;" xml:space="preserve">
<style type="text/css">
	.st0{fill:#4FD0FC;stroke:#076663;stroke-width:0.75;stroke-miterlimit:10;}
	.st1{fill:#FFFFFF;}
</style>
<path class="st0" d="M-277.1,410c-1.2-1.1-2.3-2.2-3.5-3.2c-2,0-4,0.1-6,0.1c-0.2,0-1.3,0.1-2.2-1c-0.7-0.8-0.8-1.8-0.8-2.1
	c0-5.5,0-11,0-16.4c0-0.3,0.2-1.3,0.9-2.1c0.8-0.9,1.8-0.9,2-0.9c6.4,0,12.9,0.1,19.3,0.1c0.2,0,1.1,0.1,1.8,0.9
	c0.7,0.8,0.9,1.8,0.9,2.1c0,5.4,0,10.9,0,16.3c0,0.2-0.1,1.3-0.8,2.2c-0.8,0.9-1.7,1-1.9,0.9c-2,0-4.1,0-6.1,0.1
	C-274.8,407.9-276,409-277.1,410z"/>
<path d="M-277.1,407.1"/>
<g>
	<g>
		<polygon class="st1" points="-287.1,398.2 -287.1,398.2 -287.1,398.2 		"/>
		<polygon class="st1" points="-267.1,398.2 -267.1,398.2 -267.1,398.2 		"/>
		<polygon class="st1" points="-267.1,400.6 -267.1,400.6 -267.1,400.6 		"/>
		<polygon class="st1" points="-287.1,400.6 -287.1,400.6 -287.1,400.6 		"/>
	</g>
	<g>
		<path d="M-270.5,399.9c1,0,1.5-0.3,2-0.6c0.4-0.3,0.7-0.5,1.4-0.5v-1.1c-1,0-1.5,0.3-2,0.6c-0.4,0.3-0.7,0.5-1.4,0.5
			c-0.7,0-1-0.2-1.4-0.5c-0.1-0.1-0.2-0.1-0.3-0.2v-2.8h2.5l-7.5-8.2l-3.1,3.3v-0.8h-2v2.9l-2.5,2.7h2.4v2.9c-0.1,0-0.1,0.1-0.2,0.1
			c-0.4,0.3-0.7,0.5-1.4,0.5c-0.7,0-1-0.2-1.4-0.5c-0.5-0.3-1-0.6-2-0.6v1.1c0.7,0,1,0.2,1.4,0.5c0.5,0.3,1,0.6,2,0.6
			c0.7,0,1.3-0.2,1.6-0.4v1.2c-0.1,0-0.1,0.1-0.2,0.1c-0.4,0.3-0.7,0.5-1.4,0.5c-0.7,0-1-0.2-1.4-0.5c-0.5-0.3-1-0.6-2-0.6v1.1
			c0.7,0,1,0.2,1.4,0.5c0.5,0.3,1,0.6,2,0.6c1,0,1.5-0.3,2-0.6c0.4-0.3,0.7-0.5,1.4-0.5c0.7,0,1,0.2,1.4,0.5c0.5,0.3,1,0.6,2,0.6
			c1,0,1.5-0.3,2-0.6c0.4-0.3,0.7-0.5,1.4-0.5c0.7,0,1,0.2,1.4,0.5c0.5,0.3,1,0.6,2,0.6s1.5-0.3,2-0.6c0.4-0.3,0.7-0.5,1.4-0.5v-1.1
			c-1,0-1.5,0.3-2,0.6c-0.4,0.3-0.7,0.5-1.4,0.5c-0.7,0-1-0.2-1.4-0.5c-0.1-0.1-0.2-0.1-0.3-0.2v-1.1
			C-271.7,399.6-271.2,399.9-270.5,399.9z M-277.1,396.3c0.9,0,1.6,0.7,1.6,1.6v0.3c-0.1,0-0.1,0.1-0.2,0.1
			c-0.4,0.3-0.7,0.5-1.4,0.5c-0.7,0-1-0.2-1.4-0.5c-0.1,0-0.1-0.1-0.2-0.1v-0.3C-278.7,397-278,396.3-277.1,396.3z M-275.8,400.7
			c-0.4,0.3-0.7,0.5-1.4,0.5c-0.7,0-1-0.2-1.4-0.5c-0.1,0-0.1-0.1-0.2-0.1v-1.2c0.4,0.2,0.8,0.4,1.6,0.4c0.7,0,1.2-0.2,1.6-0.4v1.2
			C-275.6,400.7-275.7,400.7-275.8,400.7z"/>
	</g>
</g>
</svg>
