<?xml version="1.0" encoding="utf-8"?>
<!-- Generator: Adobe Illustrator 19.0.0, SVG Export Plug-In . SVG Version: 6.00 Build 0)  -->
<svg version="1.1" id="Capa_1" xmlns="http://www.w3.org/2000/svg" xmlns:xlink="http://www.w3.org/1999/xlink" x="0px" y="0px"
	 viewBox="-291 383.3 27.8 27.8" style="enable-background:new -291 383.3 27.8 27.8;" xml:space="preserve">
<style type="text/css">
	.st0{fill:#FFCB24;stroke:#000000;stroke-width:0.75;stroke-miterlimit:10;}
</style>
<path class="st0" d="M-277.1,410c-1.2-1.1-2.3-2.2-3.5-3.2c-2,0-4,0.1-6,0.1c-0.2,0-1.3,0.1-2.2-1c-0.7-0.8-0.8-1.8-0.8-2.1
	c0-5.5,0-11,0-16.4c0-0.3,0.2-1.3,0.9-2.1c0.8-0.9,1.8-0.9,2-0.9c6.4,0,12.9,0.1,19.3,0.1c0.2,0,1.1,0.1,1.8,0.9
	c0.7,0.8,0.9,1.8,0.9,2.1c0,5.4,0,10.9,0,16.3c0,0.2-0.1,1.3-0.8,2.2c-0.8,0.9-1.7,1-1.9,0.9c-2,0-4.1,0-6.1,0.1
	C-274.8,407.9-276,409-277.1,410z"/>
<path d="M-277.1,407.1"/>
<g>
	<path d="M-269.2,404.3c0.3,0,0.6-0.3,0.6-0.6V394c0-0.3-0.3-0.6-0.6-0.6h-3.7V393c0-0.2-0.1-0.4-0.3-0.5l-3.6-1.8v-1.1l2.5-0.8
		c0.2-0.1,0.4-0.3,0.4-0.6c0-0.3-0.2-0.5-0.4-0.6l-2.9-1c-0.2-0.1-0.4,0-0.5,0.1c-0.2,0.1-0.2,0.3-0.2,0.5v3.5l-3.6,1.8
		c-0.2,0.1-0.3,0.3-0.3,0.5v0.4h-3.7c-0.3,0-0.6,0.3-0.6,0.6v9.7c0,0.3,0.3,0.6,0.6,0.6H-269.2z M-276.8,388.5v-0.6l1.3,0.3
		L-276.8,388.5z M-285,394.6h3.1v8.6h-3.1C-285,403.2-285,394.6-285,394.6z M-280.7,393.4l3.3-1.7l3.3,1.7v9.8h-6.6V393.4z
		 M-269.8,403.2h-3.1v-8.6h3.1V403.2z"/>
	<path d="M-278.3,394.4h-1c-0.3,0-0.6,0.3-0.6,0.6c0,0.3,0.3,0.6,0.6,0.6h1c0.3,0,0.6-0.3,0.6-0.6
		C-277.7,394.6-278,394.4-278.3,394.4z"/>
	<path d="M-283.8,396.5h1c0.3,0,0.6-0.3,0.6-0.6c0-0.3-0.3-0.6-0.6-0.6h-1c-0.3,0-0.6,0.3-0.6,0.6
		C-284.4,396.3-284.1,396.5-283.8,396.5z"/>
	<path d="M-282.8,397.3h-1c-0.3,0-0.6,0.3-0.6,0.6c0,0.3,0.3,0.6,0.6,0.6h1c0.3,0,0.6-0.3,0.6-0.6
		C-282.3,397.6-282.5,397.3-282.8,397.3z"/>
	<path d="M-282.8,399.3h-1c-0.3,0-0.6,0.3-0.6,0.6c0,0.3,0.3,0.6,0.6,0.6h1c0.3,0,0.6-0.3,0.6-0.6
		C-282.3,399.5-282.5,399.3-282.8,399.3z"/>
	<path d="M-271.8,396.5h1c0.3,0,0.6-0.3,0.6-0.6c0-0.3-0.3-0.6-0.6-0.6h-1c-0.3,0-0.6,0.3-0.6,0.6
		C-272.4,396.3-272.1,396.5-271.8,396.5z"/>
	<path d="M-271.8,398.5h1c0.3,0,0.6-0.3,0.6-0.6c0-0.3-0.3-0.6-0.6-0.6h-1c-0.3,0-0.6,0.3-0.6,0.6
		C-272.4,398.2-272.1,398.5-271.8,398.5z"/>
	<path d="M-270.8,399.3h-1c-0.3,0-0.6,0.3-0.6,0.6c0,0.3,0.3,0.6,0.6,0.6h1c0.3,0,0.6-0.3,0.6-0.6
		C-270.2,399.5-270.5,399.3-270.8,399.3z"/>
	<path d="M-275.4,394.4h-1c-0.3,0-0.6,0.3-0.6,0.6c0,0.3,0.3,0.6,0.6,0.6h1c0.3,0,0.6-0.3,0.6-0.6
		C-274.8,394.6-275,394.4-275.4,394.4z"/>
	<path d="M-278.3,396.3h-1c-0.3,0-0.6,0.3-0.6,0.6s0.3,0.6,0.6,0.6h1c0.3,0,0.6-0.3,0.6-0.6S-278,396.3-278.3,396.3z"/>
	<path d="M-275.4,396.3h-1c-0.3,0-0.6,0.3-0.6,0.6s0.3,0.6,0.6,0.6h1c0.3,0,0.6-0.3,0.6-0.6S-275,396.3-275.4,396.3z"/>
	<path d="M-278.3,398.3h-1c-0.3,0-0.6,0.3-0.6,0.6s0.3,0.6,0.6,0.6h1c0.3,0,0.6-0.3,0.6-0.6S-278,398.3-278.3,398.3z"/>
	<path d="M-275.4,398.3h-1c-0.3,0-0.6,0.3-0.6,0.6s0.3,0.6,0.6,0.6h1c0.3,0,0.6-0.3,0.6-0.6S-275,398.3-275.4,398.3z"/>
</g>
</svg>
