<?xml version="1.0" encoding="utf-8"?>
<!-- Generator: Adobe Illustrator 19.0.0, SVG Export Plug-In . SVG Version: 6.00 Build 0)  -->
<svg version="1.1" id="Capa_1" xmlns="http://www.w3.org/2000/svg" xmlns:xlink="http://www.w3.org/1999/xlink" x="0px" y="0px"
	 viewBox="-291 383.3 27.8 27.8" style="enable-background:new -291 383.3 27.8 27.8;" xml:space="preserve">
<style type="text/css">
	.st0{fill:#FFCB24;stroke:#000000;stroke-width:0.75;stroke-miterlimit:10;}
</style>
<path class="st0" d="M-277.1,410c-1.2-1.1-2.3-2.2-3.5-3.2c-2,0-4,0.1-6,0.1c-0.2,0-1.3,0.1-2.2-1c-0.7-0.8-0.8-1.8-0.8-2.1
	c0-5.5,0-11,0-16.4c0-0.3,0.2-1.3,0.9-2.1c0.8-0.9,1.8-0.9,2-0.9c6.4,0,12.9,0.1,19.3,0.1c0.2,0,1.1,0.1,1.8,0.9
	c0.7,0.8,0.9,1.8,0.9,2.1c0,5.4,0,10.9,0,16.3c0,0.2-0.1,1.3-0.8,2.2c-0.8,0.9-1.7,1-1.9,0.9c-2,0-4.1,0-6.1,0.1
	C-274.8,407.9-276,409-277.1,410z"/>
<path d="M-277.1,407.1"/>
<g>
	<g>
		<path d="M-269.7,402.1v-7.9c0-0.4-0.3-0.7-0.7-0.7h-3.6v-2.2c0-0.2-0.1-0.4-0.3-0.5l-2.9-1.6c0,0,0,0,0,0v-0.9h1.6
			c0.1,0,0.2-0.1,0.2-0.2v-1.1c0-0.1-0.1-0.2-0.2-0.2h-1.6v-0.1c0-0.1-0.1-0.2-0.2-0.2s-0.2,0.1-0.2,0.2v2.6c0,0,0,0,0,0l-2.9,1.6
			c-0.2,0.1-0.3,0.3-0.3,0.5v2.2h-3.6c-0.4,0-0.7,0.3-0.7,0.7v7.9c-0.3,0.1-0.5,0.5-0.5,0.8c0,0.5,0.4,0.9,0.9,0.9h14.8
			c0.5,0,0.9-0.4,0.9-0.9C-269.2,402.6-269.4,402.3-269.7,402.1z M-272.6,396.1c0-0.2,0.2-0.4,0.4-0.4h0.8c0.2,0,0.4,0.2,0.4,0.4
			v0.8c0,0.2-0.2,0.4-0.4,0.4h-0.8c-0.2,0-0.4-0.2-0.4-0.4L-272.6,396.1L-272.6,396.1z M-272.6,398.7c0-0.2,0.2-0.4,0.4-0.4h0.8
			c0.2,0,0.4,0.2,0.4,0.4v0.8c0,0.2-0.2,0.4-0.4,0.4h-0.8c-0.2,0-0.4-0.2-0.4-0.4L-272.6,398.7L-272.6,398.7z M-275.2,396.1
			c0-0.2,0.2-0.4,0.4-0.4h0.8c0.2,0,0.4,0.2,0.4,0.4v0.8c0,0.2-0.2,0.4-0.4,0.4h-0.8c-0.2,0-0.4-0.2-0.4-0.4V396.1z M-275.2,398.7
			c0-0.2,0.2-0.4,0.4-0.4h0.8c0.2,0,0.4,0.2,0.4,0.4v0.8c0,0.2-0.2,0.4-0.4,0.4h-0.8c-0.2,0-0.4-0.2-0.4-0.4V398.7z M-277.5,391.3
			c0.7,0,1.2,0.6,1.2,1.2c0,0.7-0.6,1.2-1.2,1.2c-0.7,0-1.2-0.6-1.2-1.2S-278.2,391.3-277.5,391.3z M-278.7,398.4
			c0-0.2,0.2-0.4,0.4-0.4h1.6c0.2,0,0.4,0.2,0.4,0.4v3.4c0,0.1,0,0.2-0.1,0.2h-2.4c0-0.1-0.1-0.1-0.1-0.2L-278.7,398.4L-278.7,398.4
			z M-281.4,396.1c0-0.2,0.2-0.4,0.4-0.4h0.8c0.2,0,0.4,0.2,0.4,0.4v0.8c0,0.2-0.2,0.4-0.4,0.4h-0.8c-0.2,0-0.4-0.2-0.4-0.4V396.1z
			 M-281.4,398.7c0-0.2,0.2-0.4,0.4-0.4h0.8c0.2,0,0.4,0.2,0.4,0.4v0.8c0,0.2-0.2,0.4-0.4,0.4h-0.8c-0.2,0-0.4-0.2-0.4-0.4V398.7z
			 M-284,396.1c0-0.2,0.2-0.4,0.4-0.4h0.8c0.2,0,0.4,0.2,0.4,0.4v0.8c0,0.2-0.2,0.4-0.4,0.4h-0.8c-0.2,0-0.4-0.2-0.4-0.4L-284,396.1
			L-284,396.1z M-284,398.7c0-0.2,0.2-0.4,0.4-0.4h0.8c0.2,0,0.4,0.2,0.4,0.4v0.8c0,0.2-0.2,0.4-0.4,0.4h-0.8
			c-0.2,0-0.4-0.2-0.4-0.4L-284,398.7L-284,398.7z"/>
	</g>
</g>
</svg>
