<?xml version="1.0" encoding="utf-8"?>
<!-- Generator: Adobe Illustrator 19.0.0, SVG Export Plug-In . SVG Version: 6.00 Build 0)  -->
<svg version="1.1" id="Capa_1" xmlns="http://www.w3.org/2000/svg" xmlns:xlink="http://www.w3.org/1999/xlink" x="0px" y="0px"
	 viewBox="-291 383.3 27.8 27.8" style="enable-background:new -291 383.3 27.8 27.8;" xml:space="preserve">
<style type="text/css">
	.st0{fill:#49AA31;stroke:#256819;stroke-width:0.75;stroke-miterlimit:10;}
	.st1{fill:#FFFFFF;}
</style>
<path class="st0" d="M-277.1,410c-1.2-1.1-2.3-2.2-3.5-3.2c-2,0-4,0.1-6,0.1c-0.2,0-1.3,0.1-2.2-1c-0.7-0.8-0.8-1.8-0.8-2.1
	c0-5.5,0-11,0-16.4c0-0.3,0.2-1.3,0.9-2.1c0.8-0.9,1.8-0.9,2-0.9c6.4,0,12.9,0.1,19.3,0.1c0.2,0,1.1,0.1,1.8,0.9
	c0.7,0.8,0.9,1.8,0.9,2.1c0,5.4,0,10.9,0,16.3c0,0.2-0.1,1.3-0.8,2.2c-0.8,0.9-1.7,1-1.9,0.9c-2,0-4.1,0-6.1,0.1
	C-274.8,407.9-276,409-277.1,410z"/>
<path d="M-277.1,407.1"/>
<g>
	<g>
		<path class="st1" d="M-269.1,399.9l0.5-3.7c-0.5,0.2-1.1,0.4-1.9,0.5c-1.8,0.3-4.3,0.5-6.9,0.5c-2.6,0-5.1-0.2-6.9-0.5
			c-0.8-0.1-1.4-0.3-1.9-0.5l0.5,3.7c0,0.1,0.1,0.3,0.2,0.3c0.7,0.6,2.1,1.2,4.9,1.5v-3c0-0.3,0.2-0.5,0.5-0.5h5.5
			c0.3,0,0.5,0.2,0.5,0.5v3c2.8-0.3,4.2-0.9,4.9-1.5C-269.2,400.2-269.1,400-269.1,399.9z"/>
		<path class="st1" d="M-268.2,393.2c-0.1,0-0.1,0.1-0.2,0.1c-0.5,0.2-1.2,0.4-2.1,0.6c-1.8,0.3-4.3,0.5-6.9,0.5
			c-2.6,0-5.1-0.2-6.9-0.5c-0.9-0.2-1.6-0.4-2.1-0.6c-0.1,0-0.1-0.1-0.2-0.1l0.3,2.3c0,0,0.1,0,0.1,0.1c0.5,0.2,1.2,0.4,2,0.6
			c1.8,0.3,4.2,0.5,6.8,0.5s5-0.2,6.8-0.5c0.9-0.2,1.5-0.4,2-0.6c0,0,0.1,0,0.1-0.1L-268.2,393.2z"/>
		<path class="st1" d="M-286.3,392.8c0.5,0.2,1.2,0.4,2,0.6l0,0c0,0,0,0,0.1,0c1.5-0.4,4-0.6,6.7-0.6c2.7,0,5.2,0.2,6.7,0.6
			c0,0,0,0,0.1,0c0,0,0,0,0,0c0.9-0.2,1.5-0.4,2-0.6c0.4-0.2,0.5-0.3,0.6-0.4c0,0,0,0,0,0c0,0-0.1-0.2-0.6-0.4
			c-0.2-0.1-0.5-0.2-0.7-0.3v-0.3V391v-0.4l1.6-0.9c0.1-0.1,0.1-0.2,0-0.2l-1.8-1c0,0-0.1,0-0.1,0c-0.2,0-0.3,0.1-0.3,0.3v2.1v0.3
			v0.3c-0.2,0-0.4-0.1-0.6-0.1c-1.7-0.3-4-0.5-6.5-0.5v-0.3v-0.3v-0.3l1.6-0.9c0.1-0.1,0.1-0.2,0-0.2l-1.8-1c0,0-0.1,0-0.1,0
			c-0.2,0-0.3,0.1-0.3,0.3v2.2v0.3v0.3c-2.5,0-4.8,0.2-6.5,0.5c-0.2,0-0.4,0.1-0.6,0.1v-0.3v-0.3v-0.2l1.6-0.9
			c0.1-0.1,0.1-0.2,0-0.2l-1.8-1c0,0-0.1,0-0.1,0c-0.2,0-0.3,0.1-0.3,0.3v2.3v0.3v0.3c-0.3,0.1-0.6,0.2-0.8,0.3
			c-0.5,0.2-0.6,0.4-0.6,0.4c0,0,0,0,0,0C-286.8,392.5-286.6,392.6-286.3,392.8z"/>
		<path class="st1" d="M-272.1,393.5c-1.5-0.2-3.4-0.3-5.4-0.3c-2,0-4,0.1-5.4,0.3c1.6,0.2,3.5,0.3,5.4,0.3
			C-275.5,393.8-273.6,393.7-272.1,393.5z"/>
		<path class="st1" d="M-280.1,398.8v3v0.6l-0.3,0.1l-0.3,0.1l-0.4,0.1c-0.1,0-0.2,0.2-0.2,0.3v0.4c0,0.1,0.1,0.2,0.2,0.2h7.3
			c0.1,0,0.2-0.1,0.2-0.2V403c0-0.1-0.1-0.2-0.2-0.3l-0.4-0.1l-0.3-0.1l-0.3-0.1v-0.6v-3h-0.8v2.7h-3.7v-2.7H-280.1z"/>
	</g>
</g>
</svg>
