<?xml version="1.0" encoding="utf-8"?>
<!-- Generator: Adobe Illustrator 19.0.0, SVG Export Plug-In . SVG Version: 6.00 Build 0)  -->
<svg version="1.1" id="Capa_1" xmlns="http://www.w3.org/2000/svg" xmlns:xlink="http://www.w3.org/1999/xlink" x="0px" y="0px"
	 viewBox="-291 383.2 27.8 27.8" style="enable-background:new -291 383.2 27.8 27.8;" xml:space="preserve">
<style type="text/css">
	.st0{fill:#FF48E9;stroke:#CE005E;stroke-width:0.75;stroke-miterlimit:10;}
	.st1{fill:#FFFFFF;}
</style>
<path class="st0" d="M-277,409.9c-1.2-1.1-2.3-2.2-3.5-3.2c-2,0-4,0.1-6,0.1c-0.2,0-1.3,0.1-2.2-1c-0.7-0.8-0.8-1.8-0.8-2.1
	c0-5.5,0-11,0-16.4c0-0.3,0.2-1.3,0.9-2.1c0.8-0.9,1.8-0.9,2-0.9c6.4,0,12.9,0.1,19.3,0.1c0.2,0,1.1,0.1,1.8,0.9
	c0.7,0.8,0.9,1.8,0.9,2.1c0,5.4,0,10.9,0,16.3c0,0.2-0.1,1.3-0.8,2.2c-0.8,0.9-1.7,1-1.9,0.9c-2,0-4.1,0-6.1,0.1
	C-274.7,407.8-275.9,408.9-277,409.9z"/>
<path d="M-277,407"/>
<g>
	<g id="Layer_1_21_">
		<path class="st1" d="M-269.8,404.4l-2.9-5.3c0.8-0.1,1.4-0.9,1.4-1.7v-7.8c0-2.1-1.7-3.8-3.8-3.8h-4.9c-2.1,0-3.8,1.7-3.8,3.8v7.8
			c0,0.9,0.6,1.6,1.4,1.7l-2.9,5.3c-0.2,0.4-0.1,1,0.3,1.2c0.1,0.1,0.3,0.1,0.4,0.1c0.3,0,0.6-0.2,0.7-0.4l0.3-0.4h12l0.3,0.4
			c0.2,0.3,0.4,0.4,0.7,0.4c0.1,0,0.3,0,0.4-0.1C-269.7,405.4-269.6,404.8-269.8,404.4z M-273.9,400.5h-7.3l0.7-1.3h5.8
			L-273.9,400.5z M-274,397.6c-0.7,0-1.3-0.6-1.3-1.3c0-0.7,0.6-1.3,1.3-1.3c0.7,0,1.3,0.6,1.3,1.3
			C-272.8,397-273.4,397.6-274,397.6z M-282.3,390.1c0-1.3,1.1-2.4,2.4-2.4h4.7c1.3,0,2.4,1.1,2.4,2.4v2.1c0,0.5-0.4,0.8-0.9,0.8
			h-7.8c-0.5,0-0.8-0.4-0.8-0.8L-282.3,390.1L-282.3,390.1z M-281.1,395c0.7,0,1.3,0.6,1.3,1.3c0,0.7-0.6,1.3-1.3,1.3
			s-1.3-0.6-1.3-1.3S-281.8,395-281.1,395z M-282.9,403.5l1-1.7h8.7l1,1.7H-282.9z"/>
	</g>
</g>
</svg>
