<?xml version="1.0" encoding="utf-8"?>
<!-- Generator: Adobe Illustrator 19.0.0, SVG Export Plug-In . SVG Version: 6.00 Build 0)  -->
<svg version="1.1" id="Capa_1" xmlns="http://www.w3.org/2000/svg" xmlns:xlink="http://www.w3.org/1999/xlink" x="0px" y="0px"
	 viewBox="-291 383.3 27.8 27.8" style="enable-background:new -291 383.3 27.8 27.8;" xml:space="preserve">
<style type="text/css">
	.st0{fill:#811993;stroke:#5D0472;stroke-width:0.75;stroke-miterlimit:10;}
	.st1{fill:#FFFFFF;}
</style>
<path class="st0" d="M-277.1,410c-1.2-1.1-2.3-2.2-3.5-3.2c-2,0-4,0.1-6,0.1c-0.2,0-1.3,0.1-2.2-1c-0.7-0.8-0.8-1.8-0.8-2.1
	c0-5.5,0-11,0-16.4c0-0.3,0.2-1.3,0.9-2.1c0.8-0.9,1.8-0.9,2-0.9c6.4,0,12.9,0.1,19.3,0.1c0.2,0,1.1,0.1,1.8,0.9
	c0.7,0.8,0.9,1.8,0.9,2.1c0,5.4,0,10.9,0,16.3c0,0.2-0.1,1.3-0.8,2.2c-0.8,0.9-1.7,1-1.9,0.9c-2,0-4.1,0-6.1,0.1
	C-274.8,407.9-276,409-277.1,410z"/>
<path d="M-277.1,407.1"/>
<g>
	<path class="st1" d="M-269.2,389.7c-0.3-0.4-0.9-0.7-1.4-0.7h-11.9c-0.3,0-0.7,0.1-0.9,0.3l-0.6-2.1c-0.1-0.3-0.4-0.6-0.8-0.6h-0.9
		h-1.8c-0.3,0-0.6,0.3-0.6,0.6v0.1c0,0.3,0.3,0.6,0.6,0.6h2.3l1.2,4.2l1.6,5.8c-0.9,0.2-1.6,1.1-1.6,2.1c0,1.1,0.9,2,2,2.1
		c-0.1,0.3-0.1,0.6-0.1,0.9c0.1,1,0.9,1.8,1.9,1.9c1.2,0.1,2.2-0.9,2.2-2.1c0-0.2,0-0.5-0.1-0.7h2.4c-0.1,0.3-0.1,0.6-0.1,0.9
		c0.1,1,0.9,1.8,1.9,1.8c1.2,0.1,2.2-0.9,2.2-2.1c0-1.2-1-2.1-2.1-2.1h-8.1c-0.4,0-0.7-0.3-0.7-0.7c0-0.4,0.3-0.8,0.7-0.8h1.2h6.6
		h1.9c0.8,0,1.5-0.6,1.7-1.4l1.6-6.5C-268.7,390.7-268.9,390.1-269.2,389.7z M-273.7,402c0.4,0,0.7,0.3,0.7,0.7
		c0,0.4-0.3,0.7-0.7,0.7c-0.4,0-0.7-0.3-0.7-0.7C-274.4,402.3-274.1,402-273.7,402z M-280.1,402c0.4,0,0.7,0.3,0.7,0.7
		c0,0.4-0.3,0.7-0.7,0.7c-0.4,0-0.7-0.3-0.7-0.7C-280.8,402.3-280.5,402-280.1,402z M-282.6,392l-0.3-1.1c0-0.2,0-0.3,0.1-0.4
		c0-0.1,0.1-0.2,0.3-0.2h1.3l0.4,1.6L-282.6,392L-282.6,392L-282.6,392z M-282.2,393.4h1.6l0.3,1.5h-1.6L-282.2,393.4z
		 M-280.7,397.7c-0.2,0-0.3-0.1-0.4-0.3l-0.3-1.1h1.5l0.3,1.4L-280.7,397.7L-280.7,397.7L-280.7,397.7z M-277.2,397.7h-1l-0.3-1.4
		h1.3L-277.2,397.7L-277.2,397.7z M-277.2,394.9h-1.6l-0.3-1.5h1.9V394.9z M-277.2,392h-2.2l-0.4-1.6h2.6V392z M-274.7,397.7h-1.1
		v-1.4h1.4L-274.7,397.7z M-274.1,394.9h-1.7v-1.5h2L-274.1,394.9z M-275.8,392v-1.6h2.6l-0.3,1.6H-275.8z M-271.8,397.4
		c0,0.2-0.2,0.3-0.4,0.3h-1.1l0.3-1.4h1.4L-271.8,397.4z M-271.2,394.9h-1.5l0.3-1.5h1.5L-271.2,394.9z M-270.2,390.9l-0.3,1.1h-1.6
		l0.3-1.6h1.1c0.2,0,0.3,0.1,0.3,0.2C-270.2,390.6-270.2,390.8-270.2,390.9z"/>
</g>
</svg>
