<?xml version="1.0" encoding="utf-8"?>
<!-- Generator: Adobe Illustrator 19.0.0, SVG Export Plug-In . SVG Version: 6.00 Build 0)  -->
<svg version="1.1" id="Capa_1" xmlns="http://www.w3.org/2000/svg" xmlns:xlink="http://www.w3.org/1999/xlink" x="0px" y="0px"
	 viewBox="-291 383.3 27.8 27.8" style="enable-background:new -291 383.3 27.8 27.8;" xml:space="preserve">
<style type="text/css">
	.st0{fill:#4FD0FC;stroke:#076663;stroke-width:0.75;stroke-miterlimit:10;}
</style>
<path class="st0" d="M-277.1,410c-1.2-1.1-2.3-2.2-3.5-3.2c-2,0-4,0.1-6,0.1c-0.2,0-1.3,0.1-2.2-1c-0.7-0.8-0.8-1.8-0.8-2.1
	c0-5.5,0-11,0-16.4c0-0.3,0.2-1.3,0.9-2.1c0.8-0.9,1.8-0.9,2-0.9c6.4,0,12.9,0.1,19.3,0.1c0.2,0,1.1,0.1,1.8,0.9
	c0.7,0.8,0.9,1.8,0.9,2.1c0,5.4,0,10.9,0,16.3c0,0.2-0.1,1.3-0.8,2.2c-0.8,0.9-1.7,1-1.9,0.9c-2,0-4.1,0-6.1,0.1
	C-274.8,407.9-276,409-277.1,410z"/>
<path d="M-277.1,407.1"/>
<path d="M-269.1,396.1h-3.1v-0.6h0c0.2,0,0.3-0.1,0.3-0.3V394c0-0.2-0.1-0.3-0.3-0.3h0v-2.6h0c0.2,0,0.3-0.1,0.3-0.3v-1.2
	c0-0.2-0.1-0.3-0.3-0.3h0v-0.9c0-0.1-0.1-0.2-0.2-0.3c0,0-4.6-1.7-4.6-1.7c-0.1,0-0.1,0-0.2,0l-4.6,1.7c-0.1,0-0.2,0.2-0.2,0.3v0.9
	h0c-0.2,0-0.3,0.1-0.3,0.3v1.2c0,0.2,0.1,0.3,0.3,0.3h0v2.6h0c-0.2,0-0.3,0.1-0.3,0.3v1.2c0,0.2,0.1,0.3,0.3,0.3h0v0.6h-3.1
	c-0.2,0-0.3,0.1-0.3,0.3c0,0.2,0.1,0.3,0.3,0.3h16c0.2,0,0.3-0.1,0.3-0.3C-268.8,396.3-268.9,396.1-269.1,396.1z M-281.7,394.9v-0.6
	h9.3v0.6h0C-272.4,394.9-281.7,394.9-281.7,394.9z M-275.8,388.6v0.6h-2.5v-0.6H-275.8z M-275.2,389.2v-0.6h2.5v0.6L-275.2,389.2
	L-275.2,389.2z M-281.4,388.6h2.5v0.6h-2.5V388.6z"/>
<path d="M-272.3,397.4c-0.1-0.1-0.2-0.1-0.3,0l-4.5,2.6l-4.5-2.6c-0.1-0.1-0.2-0.1-0.3,0c-0.1,0.1-0.2,0.2-0.2,0.3v7.3
	c0,0.2,0.1,0.3,0.3,0.3c0.2,0,0.3-0.1,0.3-0.3v-1.8l8.7-5v4.3l-3-1.7c-0.1-0.1-0.3,0-0.4,0.1s0,0.3,0.1,0.4l3.3,1.9v1.8
	c0,0.2,0.1,0.3,0.3,0.3c0.2,0,0.3-0.1,0.3-0.3v-7.3C-272.1,397.5-272.2,397.4-272.3,397.4z M-281.4,398.2l3.7,2.2l-3.7,2.2V398.2z"
	/>
</svg>
