<?xml version="1.0" encoding="utf-8"?>
<!-- Generator: Adobe Illustrator 19.0.0, SVG Export Plug-In . SVG Version: 6.00 Build 0)  -->
<svg version="1.1" id="Capa_1" xmlns="http://www.w3.org/2000/svg" xmlns:xlink="http://www.w3.org/1999/xlink" x="0px" y="0px"
	 viewBox="-291 383.3 27.8 27.8" style="enable-background:new -291 383.3 27.8 27.8;" xml:space="preserve">
<style type="text/css">
	.st0{fill:#F0FF29;stroke:#000000;stroke-width:0.75;stroke-miterlimit:10;}
</style>
<path class="st0" d="M-277.1,410c-1.2-1.1-2.3-2.2-3.5-3.2c-2,0-4,0.1-6,0.1c-0.2,0-1.3,0.1-2.2-1c-0.7-0.8-0.8-1.8-0.8-2.1
	c0-5.5,0-11,0-16.4c0-0.3,0.2-1.3,0.9-2.1c0.8-0.9,1.8-0.9,2-0.9c6.4,0,12.9,0.1,19.3,0.1c0.2,0,1.1,0.1,1.8,0.9
	c0.7,0.8,0.9,1.8,0.9,2.1c0,5.4,0,10.9,0,16.3c0,0.2-0.1,1.3-0.8,2.2c-0.8,0.9-1.7,1-1.9,0.9c-2,0-4.1,0-6.1,0.1
	C-274.8,407.9-276,409-277.1,410z"/>
<path d="M-277.1,407.1"/>
<g>
	<g>
		<g>
			<path d="M-276.3,390.9c0.2-0.2,0.3-0.5,0.3-0.8c0-0.7-0.5-1.2-1.2-1.2c-0.7,0-1.2,0.5-1.2,1.2c0,0.4,0.2,0.7,0.5,0.9l-4,13.7
				l0.8,0.2l0.4-1.3l5.8-5.1l1.8,6.2l0.1,0.3l0.8-0.2L-276.3,390.9z M-277.6,393.3l0.6-2l0.3,1.2L-277.6,393.3z M-277.8,394.6
				l1.4-1.2l0.9,3.1L-277.8,394.6z M-275.4,397.8l-4.9,4.3l2-6.7L-275.4,397.8z"/>
		</g>
		<g>
			<path d="M-275.3,389.6c0,0.2-0.1,0.4-0.2,0.6l0,0.1l0.2,0.2l0.1-0.1c0.2-0.2,0.2-0.5,0.2-0.8c0-0.3-0.1-0.5-0.2-0.8l0-0.1l-0.1,0
				c0,0-0.1,0-0.1,0.1l-0.1,0l0,0.1C-275.3,389.2-275.3,389.4-275.3,389.6z"/>
		</g>
		<g>
			<path d="M-274.7,391.2C-274.7,391.2-274.7,391.2-274.7,391.2l0.1,0.1l0.1-0.1c0.4-0.4,0.6-1,0.6-1.6c0-0.5-0.2-1-0.5-1.4
				l-0.1-0.1l-0.1,0.1c0,0-0.1,0.1-0.1,0.1l0,0l0,0c0.2,0.4,0.4,0.8,0.4,1.2c0,0.5-0.2,1-0.5,1.4l0,0L-274.7,391.2
				C-274.8,391.1-274.8,391.2-274.7,391.2z"/>
		</g>
		<g>
			<path d="M-273.3,389.6c0,0.7-0.3,1.5-0.8,2.1l0,0.1l0.1,0c0,0,0.1,0,0.1,0.1l0.1,0.1l0-0.1c0.5-0.6,0.8-1.4,0.8-2.3
				c0-0.9-0.3-1.7-0.9-2.3l-0.1-0.1l-0.1,0.1c0,0-0.1,0.1-0.1,0.1l0,0l0,0C-273.6,388.1-273.3,388.9-273.3,389.6z"/>
		</g>
		<g>
			<path d="M-272.4,389.6c0,1-0.4,1.9-1,2.7l-0.1,0.1l0.1,0c0,0,0.1,0.1,0.1,0.1l0.1,0.1l0-0.1c0.7-0.8,1.1-1.8,1.1-2.9
				c0-1.1-0.4-2.2-1.2-3l-0.1-0.1l-0.1,0c0,0-0.1,0-0.1,0.1l-0.1,0.1l0.1,0.1C-272.7,387.6-272.4,388.6-272.4,389.6z"/>
		</g>
		<g>
			<path d="M-279.2,390.6l0.2-0.2l0,0c-0.1-0.2-0.2-0.4-0.2-0.6c0-0.2,0.1-0.4,0.2-0.6l0-0.1l-0.1,0c0,0-0.1,0-0.1-0.1l-0.1,0l0,0.1
				c-0.1,0.2-0.2,0.5-0.2,0.8C-279.4,389.9-279.4,390.2-279.2,390.6L-279.2,390.6z"/>
		</g>
		<g>
			<path d="M-279.8,391.2L-279.8,391.2l0.1,0c0,0,0,0,0,0c0,0,0,0,0-0.1l0.1-0.1l0,0c-0.3-0.4-0.5-0.9-0.5-1.4
				c0-0.4,0.1-0.9,0.4-1.2l0,0l0,0c0,0-0.1-0.1-0.1-0.1l-0.1-0.1l-0.1,0.1c-0.3,0.4-0.5,0.9-0.5,1.4
				C-280.4,390.2-280.2,390.8-279.8,391.2z"/>
		</g>
		<g>
			<path d="M-280.5,391.9L-280.5,391.9l0.1,0c0,0,0.1,0,0.1-0.1l0.1,0l0-0.1c-0.5-0.6-0.8-1.3-0.8-2.1c0-0.8,0.3-1.5,0.8-2.1l0,0
				l0,0c0,0-0.1-0.1-0.1-0.1l-0.1-0.1l-0.1,0.1c-0.6,0.6-0.9,1.5-0.9,2.3C-281.3,390.5-281.1,391.3-280.5,391.9z"/>
		</g>
		<g>
			<path d="M-281.2,392.6L-281.2,392.6c0.1-0.1,0.1-0.1,0.2-0.1l0.1,0l-0.1-0.1c-0.6-0.8-1-1.7-1-2.7c0-1,0.4-2.1,1.1-2.8l0.1-0.1
				l-0.1-0.1c0,0-0.1,0-0.1-0.1l-0.1,0l0,0.1c-0.8,0.8-1.2,1.9-1.2,3C-282.3,390.7-282,391.7-281.2,392.6L-281.2,392.6z"/>
		</g>
	</g>
</g>
</svg>
