<?xml version="1.0" encoding="utf-8"?>
<!-- Generator: Adobe Illustrator 19.0.0, SVG Export Plug-In . SVG Version: 6.00 Build 0)  -->
<svg version="1.1" id="Capa_1" xmlns="http://www.w3.org/2000/svg" xmlns:xlink="http://www.w3.org/1999/xlink" x="0px" y="0px"
	 viewBox="-291 383.3 27.8 27.8" style="enable-background:new -291 383.3 27.8 27.8;" xml:space="preserve">
<style type="text/css">
	.st0{fill:#936547;stroke:#593C1F;stroke-width:0.75;stroke-miterlimit:10;}
	.st1{fill:#FFFFFF;}
</style>
<path class="st0" d="M-277.1,410c-1.2-1.1-2.3-2.2-3.5-3.2c-2,0-4,0.1-6,0.1c-0.2,0-1.3,0.1-2.2-1c-0.7-0.8-0.8-1.8-0.8-2.1
	c0-5.5,0-11,0-16.4c0-0.3,0.2-1.3,0.9-2.1c0.8-0.9,1.8-0.9,2-0.9c6.4,0,12.9,0.1,19.3,0.1c0.2,0,1.1,0.1,1.8,0.9
	c0.7,0.8,0.9,1.8,0.9,2.1c0,5.4,0,10.9,0,16.3c0,0.2-0.1,1.3-0.8,2.2c-0.8,0.9-1.7,1-1.9,0.9c-2,0-4.1,0-6.1,0.1
	C-274.8,407.9-276,409-277.1,410z"/>
<path d="M-277.1,407.1"/>
<path class="st1" d="M-270.9,392c0.3,0,0.6-0.3,0.6-0.6v-0.7c0,0,0,0,0,0c0,0,0,0,0,0c0,0,0-0.1,0-0.1c0,0,0,0,0,0c0,0,0-0.1,0-0.1
	c0,0,0,0,0,0c0,0,0,0,0-0.1c0,0,0,0,0,0c0,0,0,0,0-0.1c0,0,0,0,0,0c0,0,0,0-0.1-0.1c0,0,0,0,0,0l-3.7-3.7c-0.1-0.1-0.3-0.2-0.5-0.2
	c0,0-0.1,0-0.1,0h-4.7c0,0,0,0,0,0c0,0,0,0,0,0c0,0,0,0,0,0c-0.2,0-0.4,0-0.5,0.2l-3.7,3.7c0,0,0,0,0,0c0,0,0,0-0.1,0.1c0,0,0,0,0,0
	c0,0,0,0,0,0.1c0,0,0,0,0,0c0,0,0,0,0,0.1c0,0,0,0,0,0c0,0,0,0.1,0,0.1c0,0,0,0,0,0c0,0,0,0.1,0,0.1c0,0,0,0,0,0c0,0,0,0,0,0v0.7
	c0,0.3,0.3,0.6,0.6,0.6c0.3,0,0.6-0.3,0.6-0.6v0h1.7l-2.7,2.7c-0.1,0.1-0.2,0.3-0.2,0.4c0,0,0,0,0,0v0.7c0,0.3,0.3,0.6,0.6,0.6
	s0.6-0.3,0.6-0.6v-0.1h2.5l-1.6,8.6c0,0,0,0,0,0c0,0,0,0,0,0c0,0,0,0,0,0c0,0,0,0.1,0,0.1c0,0,0,0,0,0c0,0,0,0,0,0.1c0,0,0,0,0,0
	c0,0,0,0,0,0c0,0,0,0,0,0c0,0,0,0,0,0c0,0,0,0,0,0c0,0,0,0,0,0c0,0,0,0,0,0c0,0,0,0,0,0c0,0,0,0,0,0c0,0,0,0,0,0c0,0,0,0,0,0
	c0,0,0,0,0,0c0,0,0,0,0,0c0,0,0,0,0,0c0,0,0,0,0,0c0,0,0,0,0,0c0,0,0,0,0,0c0,0,0,0,0,0c0,0,0,0,0,0c0,0,0,0,0,0c0,0,0,0,0,0
	c0,0,0,0,0,0c0,0,0,0,0,0c0,0,0,0,0,0c0,0,0,0,0,0c0,0,0,0,0,0c0,0,0,0,0,0h8.2c0,0,0,0,0,0c0,0,0,0,0,0c0,0,0,0,0,0c0,0,0,0,0,0
	c0,0,0,0,0,0c0,0,0,0,0,0c0,0,0,0,0,0c0,0,0,0,0,0c0,0,0,0,0,0c0,0,0,0,0,0c0,0,0,0,0,0c0,0,0,0,0,0c0,0,0,0,0,0c0,0,0,0,0,0
	c0,0,0,0,0,0c0,0,0,0,0,0c0,0,0,0,0,0c0,0,0,0,0,0c0,0,0,0,0,0c0,0,0,0,0,0c0,0,0,0,0,0c0,0,0,0,0,0c0,0,0,0,0,0c0,0,0,0,0,0
	c0,0,0,0,0,0c0,0,0,0,0,0c0,0,0,0,0,0c0,0,0,0,0-0.1c0,0,0,0,0,0c0,0,0-0.1,0-0.1c0,0,0,0,0,0c0,0,0,0,0,0c0,0,0,0,0,0l-1-5.2
	c0,0,0,0,0,0c0-0.1,0-0.1,0-0.2l-0.6-3.2h2.6v0.1c0,0.3,0.3,0.6,0.6,0.6s0.6-0.3,0.6-0.6v-0.7c0,0,0,0,0,0c0-0.2-0.1-0.3-0.2-0.4
	l-2.7-2.7h1.7v0C-271.6,391.7-271.3,392-270.9,392z M-279.9,399.6l1.6,1.2l-2.2,1.6L-279.9,399.6z M-276.6,390.2h-2.3v-1.9
	L-276.6,390.2z M-275.5,393.9h-2.3l2.3-1.9V393.9z M-276.4,395.2l-0.9,0.6l-0.9-0.6H-276.4z M-275.5,389.5l-2.3-1.9h2.3V389.5z
	 M-279,391.4h2.3l-2.3,1.9V391.4z M-278.3,396.5l-1.1,0.8l0.3-1.4L-278.3,396.5z M-277.2,397.2l2,1.4l-2,1.5l-2-1.5L-277.2,397.2z
	 M-277.2,401.6l2.2,1.6h-4.4L-277.2,401.6z M-274,402.4l-2.2-1.6l1.6-1.2L-274,402.4z M-276.1,396.5l0.9-0.6l0.3,1.3L-276.1,396.5z
	 M-280.2,388.4v1.7h-1.7L-280.2,388.4z M-280.2,392.2v1.7h-1.7L-280.2,392.2z M-274.2,393.9v-1.8l1.8,1.8H-274.2L-274.2,393.9z
	 M-274.2,390.1v-1.8l1.8,1.8H-274.2z"/>
</svg>
