<?xml version="1.0" encoding="utf-8"?>
<!-- Generator: Adobe Illustrator 19.0.0, SVG Export Plug-In . SVG Version: 6.00 Build 0)  -->
<svg version="1.1" id="Capa_1" xmlns="http://www.w3.org/2000/svg" xmlns:xlink="http://www.w3.org/1999/xlink" x="0px" y="0px"
	 viewBox="-291 383.3 27.8 27.8" style="enable-background:new -291 383.3 27.8 27.8;" xml:space="preserve">
<style type="text/css">
	.st0{fill:#FF891F;stroke:#E06000;stroke-width:0.75;stroke-miterlimit:10;}
	.st1{fill:#010002;}
</style>
<path class="st0" d="M-277.1,410c-1.2-1.1-2.3-2.2-3.5-3.2c-2,0-4,0.1-6,0.1c-0.2,0-1.3,0.1-2.2-1c-0.7-0.8-0.8-1.8-0.8-2.1
	c0-5.5,0-11,0-16.4c0-0.3,0.2-1.3,0.9-2.1c0.8-0.9,1.8-0.9,2-0.9c6.4,0,12.9,0.1,19.3,0.1c0.2,0,1.1,0.1,1.8,0.9
	c0.7,0.8,0.9,1.8,0.9,2.1c0,5.4,0,10.9,0,16.3c0,0.2-0.1,1.3-0.8,2.2c-0.8,0.9-1.7,1-1.9,0.9c-2,0-4.1,0-6.1,0.1
	C-274.8,407.9-276,409-277.1,410z"/>
<path d="M-277.1,407.1"/>
<g>
	<g>
		<path class="st1" d="M-280.4,391.4c0.1,0,0.2-0.1,0.2-0.1c0,0,0-0.1,0-0.1c0-0.1,0.1,0,0.2,0.1c0.1,0.1,0.2,0.3,0.2,0.3
			c0,0.1,0.1,0.1,0.1,0.1h0.1h1c0,0,0.1,0,0.2,0s0.5,0,0.9,0c0.2,0,0.3,0,0.5,0c0.4,0,0.9,0,0.9,0c0.1,0,0.2,0,0.2,0h1
			c0,0,0.1,0,0.1,0c0.1,0,0.1-0.1,0.1-0.1c0-0.1,0.1-0.2,0.2-0.3s0.2-0.1,0.2-0.1c0,0,0,0.1,0,0.1c0,0.1,0.1,0.1,0.2,0.1
			c0.1,0,0.1,0,0.2-0.1c0,0,0.1-0.1,0.1-0.1c0-0.1,0-0.3,0-0.4c0-0.1,0-0.2,0-0.2l0,0c0,0-0.2,0.1-0.5,0.1c-0.3,0-0.8-0.1-1.3-0.4
			c-0.4-0.2-0.6-0.5-0.8-0.7c-0.2-0.4-0.3-0.7-0.2-0.7c0,0,0.1,0,0.1,0c0.5,0,0.6-0.1,0.6-0.2c0,0,0,0,0,0c0,0,0,0,0,0l0,0
			c-0.2-0.1-0.3-0.2-0.4-0.2c-0.2-0.2-0.4-0.3-0.4-0.4c0,0,0-0.4-0.1-0.8c-0.1-0.4-0.1-0.8-0.2-1.2c-0.1-0.4-0.2-0.4-0.2,0l-0.2,1.2
			c-0.1,0.4-0.1,0.8-0.1,0.8c0,0-0.2,0.2-0.4,0.4c-0.1,0.1-0.3,0.2-0.4,0.2c0,0,0,0,0,0c0,0,0,0,0,0l0,0c0,0,0.1,0.2,0.6,0.2
			c0,0,0.1,0,0.1,0c0.1,0,0.1,0.4-0.2,0.7c-0.2,0.2-0.4,0.5-0.8,0.7c-0.5,0.3-1,0.4-1.3,0.4c-0.3,0-0.5-0.1-0.5-0.1c0,0,0,0,0,0
			c0,0,0,0.1,0,0.2s0,0.3,0,0.4c0,0,0,0.1,0.1,0.1C-280.5,391.3-280.4,391.4-280.4,391.4z"/>
		<path class="st1" d="M-283.1,395.1c0.1,0,0.1,0,0.2-0.1c0,0,0.1-0.1,0-0.2c0,0,0-0.1-0.1-0.1c0-0.1-0.1-0.1-0.1-0.1
			c0,0,0.2,0.1,0.4,0.3c0.2,0.1,0.5,0.2,0.5,0.3c0,0.1,0.1,0.1,0.1,0.1h0.1h8.8c0.4,0,0.8,0,0.8-0.1c0-0.1,0.2-0.1,0.5-0.3
			c0.2-0.1,0.4-0.3,0.4-0.3s-0.1,0.1-0.1,0.1c0,0-0.1,0.1-0.1,0.1c0,0.1,0,0.1,0,0.2c0,0.1,0.1,0.1,0.2,0.1c0.1,0,0.3-0.1,0.3-0.2
			c0-0.1,0-0.1,0-0.1c0-0.1-0.1-0.2-0.1-0.4s0-0.3,0-0.3c0,0-0.1,0-0.2,0.1c-0.1,0.1-0.5,0.2-0.9,0.1c-0.2,0-0.5-0.1-0.8-0.3
			c-0.8-0.5-1.2-1.4-1.2-1.4c0,0,0,0,0,0c0,0,0,0-0.1,0c0,0-0.1,0-0.1-0.1s0-0.1-0.1-0.1c0,0-0.4,0-0.9,0c-1.4,0-4.3,0-4.3,0
			s0,0-0.1,0c0,0-0.1,0-0.1,0.1s0,0.1-0.1,0.1c0,0-0.1,0-0.1,0l0,0c0,0-0.4,1-1.2,1.4c-0.3,0.2-0.6,0.2-0.8,0.3
			c-0.4,0.1-0.9,0-0.9-0.1s-0.2-0.1-0.2-0.1c0,0,0,0.1,0,0.3s-0.1,0.3-0.1,0.4c0,0,0,0.1,0,0.1
			C-283.4,395.1-283.2,395.1-283.1,395.1z"/>
		<path class="st1" d="M-271.1,398.4c0-0.1-0.1-0.2-0.1-0.4s0-0.3,0-0.3c0,0-0.1,0-0.2,0.1c-0.1,0.1-0.5,0.2-0.9,0.1
			c-0.2,0-0.5-0.1-0.8-0.3c-0.8-0.5-1.2-1.4-1.2-1.4c0,0,0,0,0,0c0,0,0,0-0.1,0c0,0-0.1,0-0.1-0.1c0,0,0-0.1-0.1-0.1
			c0,0-0.4,0-0.9,0c-1.4,0-4.3,0-4.3,0s0,0-0.1,0c0,0-0.1,0-0.1,0.1c0,0,0,0.1-0.1,0.1c0,0-0.1,0-0.1,0l0,0c0,0-0.4,1-1.2,1.4
			c-0.3,0.2-0.6,0.2-0.8,0.3c-0.4,0.1-0.9,0-0.9-0.1c-0.1-0.1-0.2-0.1-0.2-0.1c0,0,0,0.1,0,0.3c0,0.1-0.1,0.3-0.1,0.4
			c0,0,0,0.1,0,0.1c0,0.2,0.2,0.2,0.3,0.2c0.1,0,0.1,0,0.2-0.1c0,0,0.1-0.1,0-0.2c0,0,0-0.1-0.1-0.1c0-0.1-0.1-0.1-0.1-0.1
			c0,0,0.2,0.1,0.4,0.3c0.2,0.1,0.5,0.2,0.5,0.3c0,0.1,0.1,0.1,0.1,0.1h0.1c0,0,0.1,0,0.2,0c0.1,0,0.2,0.1,0.2,0.1
			c0,0.1,0.2,0.1,0.4,0.1c0.2,0,0.4,0,0.4,0.1c0,0,0,0.1,0,0.1c0,0.3-0.1,0.7-0.1,1.1c-0.1,0.4-0.1,0.8-0.1,1.2
			c0,0.4-0.1,0.8-0.1,1.2c0,0,0,0.1,0,0.1c0,0.1-0.1,0.1-0.2,0.1c-0.1,0-0.2,0.1-0.2,0.2s-0.1,0.2-0.3,0.2s-0.3,0.4-0.3,0.8v0
			c0,0.4,0.3,0.8,0.8,0.8h0.8h0.1h3.2h0.1h3.2h0.1c0,0,0.3,0,0.7,0c0.4,0,0.7-0.4,0.7-0.8v0c0-0.4-0.1-0.8-0.3-0.8
			c-0.2,0-0.3-0.1-0.3-0.2s-0.1-0.2-0.2-0.2c-0.1,0-0.2,0-0.2-0.1c0,0,0-0.1,0-0.1c0-0.4-0.1-0.8-0.1-1.2c0-0.4-0.1-0.8-0.1-1.2
			c0-0.4-0.1-0.8-0.1-1.1c0,0,0-0.1,0-0.1c0-0.1,0.2-0.1,0.4-0.1c0.2,0,0.4-0.1,0.4-0.1c0-0.1,0.1-0.1,0.3-0.1c0.2,0,0.3,0,0.3-0.1
			c0-0.1,0.2-0.1,0.5-0.3c0.2-0.1,0.4-0.3,0.4-0.3s-0.1,0.1-0.1,0.1c0,0-0.1,0.1-0.1,0.1c0,0.1,0,0.1,0,0.2c0,0.1,0.1,0.1,0.2,0.1
			c0.1,0,0.3-0.1,0.3-0.2C-271.1,398.5-271.1,398.5-271.1,398.4z M-277.5,399.3c0,0.3-0.1,0.7-0.1,1.1c-0.1,0.4-0.1,0.8-0.1,1.2
			c0,0.4-0.1,0.8-0.1,1.2c0,0,0,0.1,0,0.1c0,0.1-0.1,0.1-0.2,0.1c-0.1,0-0.2,0.1-0.2,0.2s-0.3,0.2-0.7,0.2s-0.7-0.1-0.7-0.2
			c0-0.1-0.1-0.2-0.2-0.2c-0.1,0-0.2,0-0.2-0.1c0,0,0-0.1,0-0.1c0-0.4-0.1-0.8-0.1-1.2c0-0.4-0.1-0.8-0.1-1.2c0-0.4-0.1-0.8-0.1-1.1
			c0,0,0-0.1,0-0.1c0-0.1,0.2-0.1,0.4-0.1s0.4-0.1,0.4-0.1c0-0.1,0.3-0.1,0.7-0.1s0.7,0.1,0.7,0.1c0,0.1,0.2,0.1,0.4,0.1
			C-277.6,399.2-277.4,399.2-277.5,399.3C-277.5,399.3-277.5,399.3-277.5,399.3z M-274.1,399.3c0,0.3-0.1,0.7-0.1,1.1
			c-0.1,0.4-0.1,0.8-0.1,1.2c0,0.4-0.1,0.8-0.1,1.2c0,0,0,0.1,0,0.1c0,0.1-0.1,0.1-0.2,0.1c-0.1,0-0.2,0.1-0.2,0.2s-0.3,0.2-0.7,0.2
			c-0.4,0-0.7-0.1-0.7-0.2c0-0.1-0.1-0.2-0.2-0.2s-0.2,0-0.2-0.1c0,0,0-0.1,0-0.1c0-0.4-0.1-0.8-0.1-1.2c0-0.4-0.1-0.8-0.1-1.2
			c0-0.4-0.1-0.8-0.1-1.1c0,0,0-0.1,0-0.1c0-0.1,0.2-0.1,0.4-0.1c0.2,0,0.4-0.1,0.4-0.1c0-0.1,0.3-0.1,0.7-0.1
			c0.4,0,0.7,0.1,0.7,0.1c0,0.1,0.2,0.1,0.4,0.1C-274.3,399.2-274.1,399.2-274.1,399.3C-274.1,399.3-274.1,399.3-274.1,399.3z"/>
	</g>
</g>
</svg>
