<?xml version="1.0" encoding="UTF-8"?>
<!DOCTYPE svg PUBLIC "-//W3C//DTD SVG 1.1//EN" "http://www.w3.org/Graphics/SVG/1.1/DTD/svg11.dtd">
<!-- Creator: CorelDRAW 2020 (64-Bit) -->
<svg xmlns="http://www.w3.org/2000/svg" xml:space="preserve" width="5mm" height="5mm" version="1.1" style="shape-rendering:geometricPrecision; text-rendering:geometricPrecision; image-rendering:optimizeQuality; fill-rule:evenodd; clip-rule:evenodd"
viewBox="0 0 500 500"
 xmlns:xlink="http://www.w3.org/1999/xlink"
 xmlns:xodm="http://www.corel.com/coreldraw/odm/2003"
 enable-background="new 0 0 580 580">
 <defs>
  <style type="text/css">
   <![CDATA[
    .str0 {stroke:#2B2A29;stroke-width:10;stroke-miterlimit:22.9256}
    .fil0 {fill:#FEFEFE}
    .fil3 {fill:#008DD2;fill-rule:nonzero}
    .fil2 {fill:#00A0E3;fill-rule:nonzero}
    .fil1 {fill:black;fill-rule:nonzero;fill-opacity:0.501961}
    .fil4 {fill:black;fill-rule:nonzero;fill-opacity:0.749020}
   ]]>
  </style>
 </defs>
 <g id="Layer_x0020_1">
  <metadata id="CorelCorpID_0Corel-Layer"/>
  <circle class="fil0 str0" cx="244.13" cy="255.37" r="150"/>
  <path class="fil1" d="M263.31 253.72l0 29.43c3.72,-0.77 6.84,-2.35 9.38,-4.73 2.95,-2.77 4.43,-6.28 4.43,-10.51 0,-3.71 -1.12,-6.7 -3.36,-8.96 -1.99,-2.01 -5.48,-3.76 -10.45,-5.23z"/>
  <path class="fil1" d="M287.78 182.19l-60.38 0.58c-0.61,3.53 -46.47,136.23 -46.47,136.23l153.4 -1.3 -46.55 -135.51zm-24.47 109.42l0 10.72c0,3.15 -2.55,5.7 -5.7,5.7 -3.15,0 -5.7,-2.55 -5.7,-5.7l0 -10.78c-7.62,-1.04 -13.58,-3.37 -17.85,-7.01 -4.73,-4.02 -7.4,-9.66 -8.01,-16.9l11.73 -1.77c0.91,5.45 2.75,9.64 5.53,12.58 2.25,2.38 5.12,3.93 8.6,4.65l0 -31.75c-7.55,-1.65 -13.31,-4.18 -17.26,-7.59 -4.39,-3.79 -6.58,-8.66 -6.58,-14.62 0,-5.92 2.17,-11 6.51,-15.25 3.92,-3.83 9.7,-6.2 17.33,-7.11l0 -5.13c0,-3.15 2.55,-5.7 5.7,-5.7 3.15,0 5.7,2.55 5.7,5.7l0 5.07c6.49,0.79 11.68,2.71 15.57,5.76 4.25,3.35 6.92,8.04 8.01,14.07l-12.18 1.49c-0.7,-3.75 -2.15,-6.72 -4.37,-8.91 -1.82,-1.8 -4.17,-3.07 -7.03,-3.81l0 28.65c8.44,1.5 14.83,4.13 19.15,7.89 4.47,3.9 6.71,9.01 6.71,15.34 0,6.47 -2.46,12.08 -7.36,16.82 -4.55,4.39 -10.72,6.92 -18.5,7.59l0 0z"/>
  <path class="fil1" d="M239.79 228.37c0,3.79 1.31,6.77 3.91,8.96 2.1,1.77 4.84,3.2 8.21,4.31l0 -26.35c-3.51,0.84 -6.29,2.29 -8.34,4.34 -2.52,2.52 -3.78,5.43 -3.78,8.74l0 0z"/>
  <polygon class="fil1" points="225.14,189.9 210.23,189.9 157.43,336.58 329.13,334.68 324.57,317.78 180.93,319 "/>
  <path class="fil2" d="M263.31 253.72l0 29.43c3.72,-0.77 6.84,-2.35 9.38,-4.73 2.95,-2.77 4.43,-6.28 4.43,-10.51 0,-3.71 -1.12,-6.7 -3.36,-8.96 -1.99,-2.01 -5.48,-3.76 -10.45,-5.23z"/>
  <path class="fil2" d="M287.78 182.19l-60.38 0.58c-0.61,3.53 -46.47,136.23 -46.47,136.23l153.4 -1.3 -46.55 -135.51zm-24.47 109.42l0 10.72c0,3.15 -2.55,5.7 -5.7,5.7 -3.15,0 -5.7,-2.55 -5.7,-5.7l0 -10.78c-7.62,-1.04 -13.58,-3.37 -17.85,-7.01 -4.73,-4.02 -7.4,-9.66 -8.01,-16.9l11.73 -1.77c0.91,5.45 2.75,9.64 5.53,12.58 2.25,2.38 5.12,3.93 8.6,4.65l0 -31.75c-7.55,-1.65 -13.31,-4.18 -17.26,-7.59 -4.39,-3.79 -6.58,-8.66 -6.58,-14.62 0,-5.92 2.17,-11 6.51,-15.25 3.92,-3.83 9.7,-6.2 17.33,-7.11l0 -5.13c0,-3.15 2.55,-5.7 5.7,-5.7 3.15,0 5.7,2.55 5.7,5.7l0 5.07c6.49,0.79 11.68,2.71 15.57,5.76 4.25,3.35 6.92,8.04 8.01,14.07l-12.18 1.49c-0.7,-3.75 -2.15,-6.72 -4.37,-8.91 -1.82,-1.8 -4.17,-3.07 -7.03,-3.81l0 28.65c8.44,1.5 14.83,4.13 19.15,7.89 4.47,3.9 6.71,9.01 6.71,15.34 0,6.47 -2.46,12.08 -7.36,16.82 -4.55,4.39 -10.72,6.92 -18.5,7.59l0 0z"/>
  <path class="fil2" d="M239.79 228.37c0,3.79 1.31,6.77 3.91,8.96 2.1,1.77 4.84,3.2 8.21,4.31l0 -26.35c-3.51,0.84 -6.29,2.29 -8.34,4.34 -2.52,2.52 -3.78,5.43 -3.78,8.74l0 0z"/>
  <polygon class="fil3" points="225.14,189.9 210.23,189.9 157.43,336.58 329.13,334.68 324.57,317.78 180.93,319 "/>
  <path class="fil4" d="M325.37 164.5l-152.18 0c-3.76,0 -6.81,3.05 -6.81,6.81l0 23.9c0,3.76 3.05,6.81 6.81,6.81l32.68 0 4.36 -12.12 14.91 0 -2.83 8.26 0.66 0 -0.59 0c1.26,-3.36 5.02,-15.39 5.02,-15.39l60.38 -0.58 6 17.47c1.27,1.47 3.13,2.36 5.15,2.36l26.44 0c3.76,0 6.81,-3.05 6.81,-6.81l0 -23.9c0,-3.76 -3.05,-6.81 -6.81,-6.81z"/>
 </g>
</svg>
