<?xml version="1.0" encoding="UTF-8"?>
<!DOCTYPE svg PUBLIC "-//W3C//DTD SVG 1.1//EN" "http://www.w3.org/Graphics/SVG/1.1/DTD/svg11.dtd">
<!-- Creator: CorelDRAW 2020 (64-Bit) -->
<svg xmlns="http://www.w3.org/2000/svg" xml:space="preserve" width="5mm" height="5mm" version="1.1" style="shape-rendering:geometricPrecision; text-rendering:geometricPrecision; image-rendering:optimizeQuality; fill-rule:evenodd; clip-rule:evenodd"
viewBox="0 0 500 500"
 xmlns:xlink="http://www.w3.org/1999/xlink"
 xmlns:xodm="http://www.corel.com/coreldraw/odm/2003"
 enable-background="new 0 0 580 580">
 <defs>
  <style type="text/css">
   <![CDATA[
    .str0 {stroke:#2B2A29;stroke-width:10;stroke-miterlimit:22.9256}
    .fil0 {fill:#FEFEFE}
    .fil1 {fill:#393185;fill-rule:nonzero}
   ]]>
  </style>
 </defs>
 <g id="Layer_x0020_1">
  <metadata id="CorelCorpID_0Corel-Layer"/>
  <circle class="fil0 str0" cx="244.13" cy="255.37" r="150"/>
  <g id="_309404992">
   <path class="fil1" d="M247.08 330.43c-13.73,6.07 -17.24,12.81 -10.72,20.55 4.01,4.78 5.99,4.38 6.54,-1.3 0.54,-5.6 1.84,-7 7.42,-8.05 11.95,-2.24 16.67,-7.4 16.67,-18.23 0,-7.76 -8.18,-8.02 -20.14,-0.63 -3.6,2.23 -1.25,5.71 2.54,3.75 2.08,-1.07 3.77,-2.61 3.77,-3.42 0,-1.08 0.38,-1.11 1.4,-0.08 2.14,2.14 0.29,3.97 -7.48,7.41l0 0z"/>
   <path class="fil1" d="M263.42 350.21c3.99,-4.47 3.59,-12.53 -0.52,-10.31 -1.55,0.84 -5.93,2.49 -9.74,3.66 -5.21,1.62 -7.01,2.8 -7.31,4.81 -0.51,3.39 0.74,3.37 4.41,-0.07 2.23,-2.1 2.9,-2.3 2.9,-0.83 0,1.05 -5.4,5.38 -12.01,9.63 -6.61,4.26 -11.69,8.26 -11.3,8.9 1.17,1.89 29.81,-11.58 33.57,-15.79l0 0z"/>
   <path class="fil1" d="M222.39 245.45c0.44,-0.71 3.62,-2.9 7.08,-4.87 6.28,-3.59 6.28,-3.59 1.48,-4.45 -9.28,-1.68 -15.48,-5.53 -15.48,-9.62 0,-4.51 3.4,-4.93 8.64,-1.06 4.32,3.2 13.6,3 15.68,-0.33 4.33,-6.9 -6.94,-15.52 -18.4,-14.08 -21.99,2.78 -26.51,19.92 -8.45,32.05 5.73,3.85 8.16,4.46 9.45,2.36l0 0z"/>
   <path class="fil1" d="M205.43 197c0.86,1.16 3.12,3.15 5.03,4.41 3.6,2.37 14.79,3.12 22.8,1.52 5,-1 6.38,-29.68 1.5,-31.23 -1.33,-0.42 -3.57,-2.72 -4.98,-5.11 -3.22,-5.45 -7.02,-5.66 -21.01,-1.13 -8.71,2.81 -12.86,3.29 -34.1,3.96 -13.31,0.41 -24.19,1.1 -24.19,1.54 0,4.29 9.86,10.77 14.58,9.59 2.41,-0.6 3.01,-0.26 3.01,1.71 0,3.27 4.63,6.38 9.5,6.38 2.96,0 4.27,0.77 5.35,3.15 2.53,5.53 9.12,7.74 15.57,5.2 5.06,-1.98 5.49,-1.98 6.94,0.01l0 0z"/>
   <path class="fil1" d="M241.91 164.73c2.12,1.48 2.46,3.24 2.46,12.65 0,6 0.38,21.52 0.83,34.48 0.82,23.56 0.82,23.56 4.39,23.56 3.57,0 3.57,0 3.57,-33.43 0,-33.43 0,-33.43 3.15,-37.17 5.98,-7.11 5.1,-15.63 -2,-19.3 -12.26,-6.34 -23.66,11.33 -12.4,19.21l0 0z"/>
   <path class="fil1" d="M274.22 252.75c-1.01,0.83 -4.49,1.88 -7.74,2.33 -4.78,0.65 -5.75,1.19 -5.07,2.83 1.99,4.81 1.81,6.21 -1.27,9.88 -2.11,2.5 -6.48,5.1 -12.35,7.32 -22.6,8.59 -30.39,19.96 -21.58,31.5 3.86,5.06 3.74,5.05 11.77,0.88 6.11,-3.17 6.3,-3.41 3.89,-5.1 -7.3,-5.11 -2.55,-10.92 13.61,-16.63 18.49,-6.54 26.48,-14.65 24.72,-25.07 -1.14,-6.75 -3.55,-9.96 -5.98,-7.94l0 0z"/>
   <path class="fil1" d="M261.99 214.86c-10.1,8.5 2.05,18.46 12.81,10.51 4.52,-3.35 7.89,-2.86 7.89,1.14 0,5.85 -18.45,12.58 -34.71,12.65 -22.44,0.11 -38.45,22.31 -25.77,35.76 5.07,5.37 5.85,5.44 14.11,1.11 6.44,-3.37 6.44,-3.37 2.84,-6.39 -9.89,-8.33 -4.75,-13.31 17.21,-16.68 25.88,-3.98 39.52,-13.32 39.52,-27.07 0,-12.18 -23.46,-19.82 -33.9,-11.03l0 0z"/>
   <path class="fil1" d="M324.06 169.45c-21.27,-0.63 -25.32,-1.1 -34.18,-3.94 -15.03,-4.83 -20.35,-4.12 -22.62,3.03 -0.44,1.37 -2.19,2.85 -3.89,3.28 -4.87,1.22 -4.19,29.37 0.75,30.84 8.51,2.52 22.28,0.62 26.74,-3.7 4.11,-3.98 4.36,-4.05 7.91,-2.2 6.48,3.38 12.45,1.73 16.1,-4.46 1.73,-2.92 3.05,-3.66 6.5,-3.66 4.57,0 9.35,-3.54 9.35,-6.94 0,-1.38 0.82,-1.7 3,-1.15 4.03,1.01 10.33,-2.4 12.62,-6.82 1.84,-3.56 1.84,-3.56 -22.28,-4.28l0 0z"/>
   <path class="fil1" d="M247.67 383.96c0.98,1.59 3.56,0.51 3.85,-1.62 0.13,-0.98 0.6,-6.11 1.04,-11.39 0.79,-9.61 0.79,-9.61 7.76,-7.17 7.82,2.75 9.45,2.33 5.94,-1.55 -11.29,-12.47 -27.8,6.83 -18.59,21.73l0 0z"/>
   <path class="fil1" d="M263.77 285.95c-2.03,1.01 -6.95,2.83 -10.92,4.05 -7.23,2.2 -7.23,2.2 -7.23,8.3 0,6.1 0,6.1 3.77,4.79 3.43,-1.19 3.77,-1.82 3.77,-6.89 0,-5.17 0.19,-5.48 2.49,-4.25 8.25,4.42 4.6,10.87 -8.63,15.25 -14.94,4.94 -22.69,17.42 -15.65,25.19 2.55,2.82 2.01,2.87 6.97,-0.53 3.24,-2.2 4.06,-3.56 3.75,-6.21 -0.45,-3.88 1.41,-5.08 15.16,-9.85 16.51,-5.72 22.13,-17.85 13.11,-28.33 -2.74,-3.19 -3.07,-3.27 -6.59,-1.52l0 0z"/>
   <path class="fil1" d="M253.16 263.1c0,-6.18 -0.08,-6.32 -3.77,-6.32 -3.77,0 -3.77,0 -3.77,7.54 0,4.15 0.25,7.54 0.55,7.54 4.79,0 6.99,-2.76 6.99,-8.76l0 0z"/>
  </g>
 </g>
</svg>
