<?xml version="1.0" encoding="UTF-8"?>
<!DOCTYPE svg PUBLIC "-//W3C//DTD SVG 1.1//EN" "http://www.w3.org/Graphics/SVG/1.1/DTD/svg11.dtd">
<!-- Creator: CorelDRAW 2020 (64-Bit) -->
<svg xmlns="http://www.w3.org/2000/svg" xml:space="preserve" width="5mm" height="5mm" version="1.1" style="shape-rendering:geometricPrecision; text-rendering:geometricPrecision; image-rendering:optimizeQuality; fill-rule:evenodd; clip-rule:evenodd"
viewBox="0 0 500 500"
 xmlns:xlink="http://www.w3.org/1999/xlink"
 xmlns:xodm="http://www.corel.com/coreldraw/odm/2003">
 <defs>
  <style type="text/css">
   <![CDATA[
    .str1 {stroke:#FEFEFE;stroke-width:3.53;stroke-miterlimit:22.9256}
    .str0 {stroke:#2B2A29;stroke-width:10;stroke-miterlimit:22.9256}
    .fil1 {fill:none}
    .fil0 {fill:#FEFEFE}
    .fil3 {fill:#002F99}
    .fil2 {fill:#009900}
   ]]>
  </style>
 </defs>
 <g id="Layer_x0020_1">
  <metadata id="CorelCorpID_0Corel-Layer"/>
  <circle class="fil0 str0" cx="247.6" cy="253.06" r="150"/>
  <rect class="fil0" x="212.91" y="206.98" width="66.15" height="35.14" rx="8.05" ry="10.69"/>
  <ellipse class="fil0" cx="222.34" cy="196.25" rx="5.99" ry="6.09"/>
  <ellipse class="fil0" cx="270.03" cy="195.98" rx="5.99" ry="6.09"/>
  <line class="fil1 str1" x1="209.87" y1="318.18" x2="282.12" y2= "318.07" />
  <line class="fil1 str1" x1="220.98" y1="310.79" x2="270.98" y2= "310.68" />
  <path class="fil2" d="M140.32 220.45l1.47 1.99c6.46,6.67 13.34,4.57 23.8,7.87 14.72,4.64 22.22,13.56 33.3,20.95 11.37,7.57 27.61,12.69 41.71,12.74l-0.02 38.21c2.6,0.99 6.42,1.48 8.88,0.12 1.2,-2.66 -0.14,-32.61 0.67,-39.04 9.53,-4.24 7.84,-2.33 15.37,-9.94 3.67,-3.73 6.92,-9.86 8.27,-17.03 0.87,-4.57 0.38,-13.41 -1.84,-16.08 -1.12,-1.34 -1.94,-0.78 -4.83,-0.67 -8.42,0.33 -16.87,0.15 -25.33,0.26 -16.72,0.21 -33.93,0.36 -50.63,0.1 -1.26,-0.02 -48.82,-0.53 -50.82,0.52z"/>
  <path class="fil3" d="M252.39 265.19c0.09,3.62 -0.12,8.54 0.76,11.78 4.21,-0.14 13.17,-3.62 16.49,-5.47 15.55,-8.67 24.89,-21.89 26,-40.51 0.43,-7.13 -1.36,-12.65 -4.68,-17.56 -6.62,-9.78 -16.2,-12.75 -28.3,-16 -13.05,-3.51 -35.27,-3.14 -47.05,-19.4 -7.83,-10.82 -4.42,-25.42 4.31,-31.75 10.08,-7.29 28.77,0.92 28.33,11.01 -0.14,3.2 -3.03,1.93 -4.89,6.1 -2.49,5.58 2.5,11.47 5.34,15.44 4.17,5.82 8.16,10.28 11.22,1.13 1.56,-4.69 5.07,-13.17 2.82,-17.89 -1.61,-3.39 -4.35,-2.44 -5.92,-5.35 -2.2,-4.09 -2.24,-19.43 -22.72,-21.66 -10.34,-1.13 -24.29,5.07 -30,14.4 -7.74,12.65 -3.46,29.95 6.89,40.42 1.91,1.94 3.76,3.5 6.12,5.18 11.7,8.32 20.8,9.02 31.65,12.69 7.19,2.43 7.42,1.56 16.38,5.74 4.88,2.27 10.54,5.45 11.72,10.43 1.69,7.11 0.67,13.36 -1.41,19.44 -2.3,6.71 -4.81,9.62 -8.55,13.64 -2.83,3.04 -8.83,7.22 -14.51,8.19z"/>
  <path class="fil3" d="M252.91 290.82c3.7,0.44 7.02,-2.55 10.33,0.97 5.07,5.41 -1.81,15.24 -21.47,13.32 -19.78,-1.94 -17.25,-23.79 -3.95,-26.09l-0.28 -12.59c-6.88,-0.81 -15.38,5.38 -17.82,8.49 -18.54,23.63 9.09,42.19 25.67,41.12 8.9,-0.57 14.93,-1.26 22.09,-4.66 5.06,-2.41 11.57,-7.47 13.81,-12.4 1.44,-3.17 1.82,-7.58 0.47,-11.26 -3.73,-10.11 -27.24,-6.97 -29.01,-3.85 -0.54,2.1 -0.54,4.89 0.16,6.95z"/>
  <path class="fil2" d="M299.35 372.16c-0.72,-1.63 0.48,-0.35 -1.4,-1.63 -3.09,-2.12 -9,-3.07 -12.62,-3.58 -2.77,-0.4 -5.79,-0.47 -8.42,-1.15 -2.98,-0.77 -3.93,-1.9 -6.57,-2.92 -4.29,-1.63 -10.36,-1.17 -15.72,-3.26 -6.25,-2.43 -3.71,-7.64 -4.53,-13.98 -2.11,-0.59 -8.12,-2.14 -9.91,-1.91 -0.34,5.43 0.92,13.64 -3.61,15.86 -4.3,2.11 -10.64,2.01 -15.41,4.02 -9.29,3.93 -1.08,2.6 -15.48,4.07 -2.69,0.27 -11.81,2.71 -13.58,5.37l107.25 -0.89z"/>
  <path class="fil2" d="M295.21 249.94c5.02,-3.51 3.45,-7.31 24.81,-18.47 12.03,-6.3 26.83,-3.57 31.66,-12.23l-54.71 0.17c1.39,5.83 2.41,8.8 1.5,15.93 -0.43,3.33 -3.52,12.94 -3.26,14.6z"/>
  <path class="fil3" d="M221.83 312.33c-3.47,8.12 -1.97,16.88 5.23,22.42 15.6,12 29.14,5.15 41.11,9.98 2.36,0.95 2.14,1.39 3.23,2.2 3.39,2.51 5.92,-1.85 -1.32,-5.92 -10.83,-6.08 -23.26,-2.71 -31.75,-9.4 -3.09,-2.44 -6.68,-7.76 -5.8,-13.84 -0.84,-0.77 -3.94,-1.99 -5.21,-2.72 -1.86,-1.06 -3.21,-2.72 -5.49,-2.72z"/>
  <path class="fil2" d="M239.72 329.57c1.68,1.99 6.85,3.85 10.22,3.94l0 -15.4c-4.24,0.67 -6,0.04 -9.8,-0.21l-0.42 11.67z"/>
  <path class="fil3" d="M234.09 300.3c1.17,-0.67 2.58,-1.92 3.74,-2.87l0.05 -8.12c-1.49,0.26 -9.93,3.75 -6.99,8.13 0.94,1.41 1.44,2.17 3.2,2.86z"/>
 </g>
</svg>
