<?xml version="1.0" encoding="UTF-8"?>
<!DOCTYPE svg PUBLIC "-//W3C//DTD SVG 1.1//EN" "http://www.w3.org/Graphics/SVG/1.1/DTD/svg11.dtd">
<!-- Creator: CorelDRAW 2020 (64-Bit) -->
<svg xmlns="http://www.w3.org/2000/svg" xml:space="preserve" width="5mm" height="5mm" version="1.1" style="shape-rendering:geometricPrecision; text-rendering:geometricPrecision; image-rendering:optimizeQuality; fill-rule:evenodd; clip-rule:evenodd"
viewBox="0 0 500 500"
 xmlns:xlink="http://www.w3.org/1999/xlink"
 xmlns:xodm="http://www.corel.com/coreldraw/odm/2003">
 <defs>
  <style type="text/css">
   <![CDATA[
    .str1 {stroke:#FEFEFE;stroke-width:3.53;stroke-miterlimit:22.9256}
    .str0 {stroke:#2B2A29;stroke-width:10;stroke-miterlimit:22.9256}
    .fil1 {fill:none}
    .fil0 {fill:#FEFEFE}
    .fil2 {fill:#010101}
   ]]>
  </style>
 </defs>
 <g id="Layer_x0020_1">
  <metadata id="CorelCorpID_0Corel-Layer"/>
  <circle class="fil0 str0" cx="246.9" cy="253.06" r="150"/>
  <rect class="fil0" x="212.91" y="206.98" width="66.15" height="35.14" rx="8.05" ry="10.69"/>
  <ellipse class="fil0" cx="222.34" cy="196.25" rx="5.99" ry="6.09"/>
  <ellipse class="fil0" cx="270.03" cy="195.98" rx="5.99" ry="6.09"/>
  <line class="fil1 str1" x1="209.87" y1="318.18" x2="282.12" y2= "318.07" />
  <line class="fil1 str1" x1="220.98" y1="310.79" x2="270.98" y2= "310.68" />
  <path class="fil2" d="M177.26 157.3c1.14,3.2 12.76,17.82 15.9,22.08 3.01,4.1 13.93,17.57 14.94,22.05 -8,-3.05 -27.58,-35.83 -35.8,-39.91 3.82,8.39 28.02,36.85 30.94,44.13 -4.6,-1.21 -5.73,-4.05 -10.05,-9.47 -2.92,-3.66 -5.15,-6.76 -8.21,-10.58 -3.34,-4.2 -12.51,-18.66 -17.39,-19.97 3.51,7.87 27.74,37.32 30.43,44.59 -6.27,-1.72 -30.19,-37.95 -34.83,-40.61 1.88,6.87 11.13,20.25 14.86,25.87 31.66,47.62 31.95,23.77 44.21,35.81 4.38,4.3 14.02,18.36 15.53,24.46 -6.3,4.79 -38.88,45.24 -46.36,54.32 -8.51,10.35 -26.58,27.12 -18.7,35.91 9.66,10.79 19.22,-5.98 23.29,-10.6l52.59 -67.05c1.82,3.54 6.13,8.47 8.78,11.74l36.84 46.12c3.31,4.03 5.98,7.3 9.3,11.46 5.42,6.79 16.07,19.81 23.92,8.69 5.85,-8.28 -8.82,-21.8 -16.9,-31.55l-33.06 -37.98c-2.01,-2.12 -2.76,-4.05 -4.81,-6.11l-14.59 -14.96c1.88,-6.59 6.75,-14.57 10.48,-19.62 8.23,-11.14 7.8,-5.52 21.71,-7.84 37.29,-6.21 51.36,-94.76 -6.83,-50.37 -17.15,13.08 -16.19,24.44 -13.8,41.55 0.93,6.65 -7.88,12.33 -11.61,16 -3.79,3.72 0,0 -9.84,9.97 -8.12,-6.85 -4.7,-3.88 -7.29,-6.16 -2.96,-2.59 -4.33,-4.97 -7.18,-7.6 -2.35,-2.15 -5.3,-4.13 -7.14,-6.7 -4.37,-6.09 0.02,-12.16 -7.83,-21.8l-20.16 -23.27c-4.57,-5.56 -16.09,-20.66 -21.34,-22.6z"/>
 </g>
</svg>
